<?xml version="1.0" encoding="utf-8"?>
<svg xmlns="http://www.w3.org/2000/svg" xmlns:xlink="http://www.w3.org/1999/xlink" width="600" height="400" viewBox="0 0 2400 1600">
<defs>
  <clipPath id="clip010">
    <rect x="0" y="0" width="2400" height="1600"/>
  </clipPath>
</defs>
<path clip-path="url(#clip010)" d="M0 1600 L2400 1600 L2400 0 L0 0  Z" fill="#ffffff" fill-rule="evenodd" fill-opacity="1"/>
<defs>
  <clipPath id="clip011">
    <rect x="480" y="0" width="1681" height="1600"/>
  </clipPath>
</defs>
<path clip-path="url(#clip010)" d="M47.2441 1552.76 L1820.75 1552.76 L1820.75 47.2441 L47.2441 47.2441  Z" fill="#ffffff" fill-rule="evenodd" fill-opacity="1"/>
<defs>
  <clipPath id="clip012">
    <rect x="47" y="47" width="1775" height="1507"/>
  </clipPath>
</defs>
<polyline clip-path="url(#clip010)" style="stroke:#000000; stroke-linecap:round; stroke-linejoin:round; stroke-width:4; stroke-opacity:1; fill:none" points="47.2441,1552.76 1820.75,1552.76 "/>
<polyline clip-path="url(#clip010)" style="stroke:#000000; stroke-linecap:round; stroke-linejoin:round; stroke-width:4; stroke-opacity:1; fill:none" points="47.2441,1552.76 47.2441,47.2441 "/>
<polyline clip-path="url(#clip012)" style="stroke:#009af9; stroke-linecap:round; stroke-linejoin:round; stroke-width:8; stroke-opacity:1; fill:none" points="97.4376,1366.01 110.612,1365.76 123.786,1364.93 136.96,1363.3 150.134,1360.43 163.308,1355.45 176.483,1346.73 189.657,1331.3 202.831,1304.58 216.005,1261.32 229.179,1197.5 242.353,1111.29 255.528,1003.45 268.702,877.602 281.876,740.1 295.05,599.12 308.224,463.364 321.398,340.861 334.572,238.193 347.747,160.221 360.921,110.174 374.095,89.8946 387.269,100.078 400.443,140.38 413.617,209.359 426.792,304.277 439.966,420.836 453.14,553.019 466.314,693.217 479.488,832.835 492.662,963.372 505.836,1077.74 519.011,1171.36 532.185,1242.54 545.359,1292.28 558.533,1323.93 571.707,1342.54 584.881,1353.08 598.056,1359.07 611.23,1362.52 624.404,1364.49 637.578,1365.55 650.752,1365.98 663.926,1365.9 677.101,1365.28 690.275,1363.95 703.449,1361.56 716.623,1357.42 729.797,1350.19 742.971,1337.43 756.145,1315.05 769.32,1277.83 782.494,1221.17 795.668,1142.45 808.842,1041.55 822.016,921.111 835.19,786.643 848.365,645.851 861.539,507.411 874.713,379.687 887.887,269.794 901.061,183.171 914.235,123.564 927.409,93.2499 940.584,93.2837 953.758,123.665 966.932,183.334 980.106,270.013 993.28,379.952 1006.45,507.707 1019.63,646.162 1032.8,786.949 1045.98,921.393 1059.15,1041.79 1072.33,1142.65 1085.5,1221.31 1098.67,1277.93 1111.85,1315.11 1125.02,1337.46 1138.2,1350.21 1151.37,1357.43 1164.54,1361.57 1177.72,1363.95 1190.89,1365.28 1204.07,1365.9 1217.24,1365.98 1230.42,1365.55 1243.59,1364.49 1256.76,1362.51 1269.94,1359.06 1283.11,1353.07 1296.29,1342.52 1309.46,1323.9 1322.63,1292.22 1335.81,1242.45 1348.98,1171.23 1362.16,1077.58 1375.33,963.185 1388.5,832.629 1401.68,693.002 1414.85,552.807 1428.03,420.639 1441.2,304.103 1454.38,209.215 1467.55,140.269 1480.72,100.002 1493.9,89.8529 1507.07,110.164 1520.25,160.242 1533.42,238.24 1546.59,340.93 1559.77,463.448 1572.94,599.213 1586.12,740.196 1599.29,877.693 1612.47,1003.53 1625.64,1111.35 1638.81,1197.55 1651.99,1261.36 1665.16,1304.6 1678.34,1331.31 1691.51,1346.73 1704.68,1355.45 1717.86,1360.43 1731.03,1363.3 1744.21,1364.93 1757.38,1365.75 1770.56,1366.01 "/>
<polyline clip-path="url(#clip012)" style="stroke:#e26f46; stroke-linecap:round; stroke-linejoin:round; stroke-width:8; stroke-opacity:1; fill:none" points="97.4376,89.8574 110.612,94.9722 123.786,110.887 136.96,139.311 150.134,183.056 163.308,245.843 176.483,331.691 189.657,443.403 202.831,579.855 216.005,733.304 229.179,890.13 242.353,1036.06 255.528,1161.34 268.702,1262.29 281.876,1339.8 295.05,1397.2 308.224,1438.54 321.398,1467.54 334.572,1487.28 347.747,1500.04 360.921,1507.35 374.095,1510.14 387.269,1508.75 400.443,1503.01 413.617,1492.21 426.792,1475 439.966,1449.37 453.14,1412.52 466.314,1360.9 479.488,1290.5 492.662,1197.61 505.836,1080.27 519.011,940.428 532.185,785.786 545.359,629.54 558.533,486.226 571.707,365.883 584.881,271.626 598.056,201.605 611.23,151.98 624.404,118.828 637.578,99.0017 650.752,90.4168 663.926,92.1239 677.101,104.314 690.275,128.319 703.449,166.593 716.623,222.596 729.797,300.359 742.971,403.334 756.145,532.057 769.32,681.15 782.494,838.537 795.668,989.464 808.842,1122.31 822.016,1231.43 835.19,1316.44 848.365,1380.09 861.539,1426.33 874.713,1459.06 887.887,1481.59 901.061,1496.46 914.235,1505.46 927.409,1509.69 940.584,1509.68 953.758,1505.44 966.932,1496.44 980.106,1481.55 993.28,1459 1006.45,1426.25 1019.63,1379.98 1032.8,1316.28 1045.98,1231.22 1059.15,1122.05 1072.33,989.151 1085.5,838.196 1098.67,680.812 1111.85,531.754 1125.02,403.085 1138.2,300.168 1151.37,222.457 1164.54,166.497 1177.72,128.256 1190.89,104.278 1204.07,92.1089 1217.24,90.4206 1230.42,99.0237 1243.59,118.87 1256.76,152.044 1269.94,201.698 1283.11,271.753 1296.29,366.049 1309.46,486.43 1322.63,629.773 1335.81,786.027 1348.98,940.655 1362.16,1080.47 1375.33,1197.77 1388.5,1290.63 1401.68,1360.99 1414.85,1412.59 1428.03,1449.42 1441.2,1475.04 1454.38,1492.23 1467.55,1503.03 1480.72,1508.76 1493.9,1510.15 1507.07,1507.35 1520.25,1500.04 1533.42,1487.28 1546.59,1467.53 1559.77,1438.51 1572.94,1397.17 1586.12,1339.75 1599.29,1262.23 1612.47,1161.27 1625.64,1035.97 1638.81,890.03 1651.99,733.202 1665.16,579.763 1678.34,443.327 1691.51,331.633 1704.68,245.802 1717.86,183.029 1731.03,139.294 1744.21,110.877 1757.38,94.9664 1770.56,89.8529 "/>
<polyline clip-path="url(#clip012)" style="stroke:#3da44d; stroke-linecap:round; stroke-linejoin:round; stroke-width:8; stroke-opacity:1; fill:none" points="97.4376,89.8733 110.612,92.2703 123.786,99.4252 136.96,111.223 150.134,127.451 163.308,147.777 176.483,171.731 189.657,198.737 202.831,228.21 216.005,259.711 229.179,293.005 242.353,327.919 255.528,364.116 268.702,400.945 281.876,437.427 295.05,472.358 308.224,504.469 321.398,532.579 334.572,555.693 347.747,573.05 360.921,584.122 374.095,588.596 387.269,586.35 400.443,577.445 413.617,562.129 426.792,540.855 439.966,514.305 453.14,483.4 466.314,449.266 479.488,413.16 492.662,376.324 505.836,339.827 519.011,304.435 532.185,270.58 545.359,238.465 558.533,208.28 571.707,180.393 584.881,155.357 598.056,133.767 611.23,116.133 624.404,102.834 637.578,94.1193 650.752,90.1333 663.926,90.9373 677.101,96.5194 690.275,106.792 703.449,121.578 716.623,140.587 729.797,163.395 742.971,189.455 756.145,218.167 769.32,249.029 782.494,281.745 795.668,316.146 808.842,351.972 822.016,388.686 835.19,425.409 848.365,460.997 861.539,494.186 874.713,523.749 887.887,548.622 901.061,567.964 914.235,581.172 927.409,587.864 940.584,587.857 953.758,581.15 966.932,567.928 980.106,548.572 993.28,523.688 1006.45,494.115 1019.63,460.92 1032.8,425.328 1045.98,388.603 1059.15,351.891 1072.33,316.067 1085.5,281.669 1098.67,248.956 1111.85,218.098 1125.02,189.391 1138.2,163.337 1151.37,140.536 1164.54,121.535 1177.72,106.757 1190.89,96.4938 1204.07,90.921 1217.24,90.1262 1230.42,94.1213 1243.59,102.845 1256.76,116.153 1269.94,133.794 1283.11,155.391 1296.29,180.433 1309.46,208.325 1322.63,238.515 1335.81,270.634 1348.98,304.493 1362.16,339.888 1375.33,376.388 1388.5,413.225 1401.68,449.331 1414.85,483.463 1428.03,514.365 1441.2,540.909 1454.38,562.177 1467.55,577.486 1480.72,586.383 1493.9,588.622 1507.07,584.14 1520.25,573.061 1533.42,555.698 1546.59,532.578 1559.77,504.462 1572.94,472.346 1586.12,437.412 1599.29,400.928 1612.47,364.098 1625.64,327.899 1638.81,292.984 1651.99,259.69 1665.16,228.189 1678.34,198.715 1691.51,171.709 1704.68,147.755 1717.86,127.429 1731.03,111.202 1744.21,99.4045 1757.38,92.2499 1770.56,89.8529 "/>
<polyline clip-path="url(#clip012)" style="stroke:#c271d2; stroke-linecap:round; stroke-linejoin:round; stroke-width:8; stroke-opacity:1; fill:none" points="97.4376,1366.01 110.612,1365.76 123.786,1364.93 136.96,1363.3 150.134,1360.43 163.308,1355.45 176.483,1346.73 189.657,1331.3 202.831,1304.58 216.005,1261.32 229.179,1197.5 242.353,1111.29 255.528,1003.45 268.702,877.602 281.876,740.1 295.05,599.119 308.224,463.364 321.398,340.861 334.572,238.193 347.747,160.221 360.921,110.174 374.095,89.8948 387.269,100.079 400.443,140.38 413.617,209.359 426.792,304.277 439.966,420.837 453.14,553.019 466.314,693.218 479.488,832.836 492.662,963.372 505.836,1077.74 519.011,1171.36 532.185,1242.54 545.359,1292.28 558.533,1323.94 571.707,1342.54 584.881,1353.08 598.056,1359.07 611.23,1362.52 624.404,1364.49 637.578,1365.55 650.752,1365.98 663.926,1365.9 677.101,1365.28 690.275,1363.95 703.449,1361.56 716.623,1357.42 729.797,1350.19 742.971,1337.43 756.145,1315.05 769.32,1277.83 782.494,1221.17 795.668,1142.45 808.842,1041.55 822.016,921.11 835.19,786.642 848.365,645.85 861.539,507.41 874.713,379.686 887.887,269.794 901.061,183.17 914.235,123.564 927.409,93.2499 940.584,93.2839 953.758,123.665 966.932,183.334 980.106,270.014 993.28,379.952 1006.45,507.708 1019.63,646.163 1032.8,786.95 1045.98,921.394 1059.15,1041.79 1072.33,1142.65 1085.5,1221.32 1098.67,1277.94 1111.85,1315.11 1125.02,1337.46 1138.2,1350.21 1151.37,1357.43 1164.54,1361.57 1177.72,1363.95 1190.89,1365.28 1204.07,1365.9 1217.24,1365.98 1230.42,1365.55 1243.59,1364.49 1256.76,1362.51 1269.94,1359.06 1283.11,1353.07 1296.29,1342.52 1309.46,1323.9 1322.63,1292.22 1335.81,1242.45 1348.98,1171.23 1362.16,1077.58 1375.33,963.185 1388.5,832.628 1401.68,693.001 1414.85,552.806 1428.03,420.638 1441.2,304.103 1454.38,209.214 1467.55,140.269 1480.72,100.002 1493.9,89.8529 1507.07,110.165 1520.25,160.242 1533.42,238.24 1546.59,340.93 1559.77,463.449 1572.94,599.213 1586.12,740.196 1599.29,877.693 1612.47,1003.53 1625.64,1111.35 1638.81,1197.55 1651.99,1261.36 1665.16,1304.6 1678.34,1331.31 1691.51,1346.73 1704.68,1355.45 1717.86,1360.43 1731.03,1363.3 1744.21,1364.93 1757.38,1365.75 1770.56,1366.01 "/>
<path clip-path="url(#clip010)" d="M1897.6 953.864 L2352.76 953.864 L2352.76 694.664 L1897.6 694.664  Z" fill="#ffffff" fill-rule="evenodd" fill-opacity="1"/>
<polyline clip-path="url(#clip010)" style="stroke:#000000; stroke-linecap:round; stroke-linejoin:round; stroke-width:4; stroke-opacity:1; fill:none" points="1897.6,953.864 2352.76,953.864 2352.76,694.664 1897.6,694.664 1897.6,953.864 "/>
<polyline clip-path="url(#clip010)" style="stroke:#009af9; stroke-linecap:round; stroke-linejoin:round; stroke-width:8; stroke-opacity:1; fill:none" points="1923.22,746.504 2076.92,746.504 "/>
<path clip-path="url(#clip010)" d="M2128.09 758.853 L2128.09 749.571 L2120.45 749.571 L2120.45 745.728 L2132.72 745.728 L2132.72 760.566 Q2130.01 762.487 2126.75 763.483 Q2123.48 764.455 2119.78 764.455 Q2111.68 764.455 2107.09 759.733 Q2102.53 754.987 2102.53 746.538 Q2102.53 738.066 2107.09 733.344 Q2111.68 728.599 2119.78 728.599 Q2123.16 728.599 2126.19 729.432 Q2129.25 730.265 2131.82 731.886 L2131.82 736.863 Q2129.22 734.664 2126.31 733.552 Q2123.39 732.441 2120.17 732.441 Q2113.83 732.441 2110.64 735.983 Q2107.46 739.525 2107.46 746.538 Q2107.46 753.529 2110.64 757.071 Q2113.83 760.612 2120.17 760.612 Q2122.65 760.612 2124.59 760.196 Q2126.54 759.756 2128.09 758.853 Z" fill="#000000" fill-rule="nonzero" fill-opacity="1" /><path clip-path="url(#clip010)" d="M2145.94 733.066 L2145.94 759.941 L2151.58 759.941 Q2158.74 759.941 2162.05 756.7 Q2165.38 753.46 2165.38 746.469 Q2165.38 739.525 2162.05 736.307 Q2158.74 733.066 2151.58 733.066 L2145.94 733.066 M2141.26 729.224 L2150.87 729.224 Q2160.91 729.224 2165.61 733.414 Q2170.31 737.58 2170.31 746.469 Q2170.31 755.404 2165.59 759.594 Q2160.87 763.784 2150.87 763.784 L2141.26 763.784 L2141.26 729.224 Z" fill="#000000" fill-rule="nonzero" fill-opacity="1" /><path clip-path="url(#clip010)" d="M2177.76 729.224 L2197.63 729.224 L2197.63 733.159 L2182.44 733.159 L2182.44 743.344 L2196.14 743.344 L2196.14 747.279 L2182.44 747.279 L2182.44 763.784 L2177.76 763.784 L2177.76 729.224 Z" fill="#000000" fill-rule="nonzero" fill-opacity="1" /><path clip-path="url(#clip010)" d="M2205.5 729.224 L2223.85 729.224 L2223.85 733.159 L2209.78 733.159 L2209.78 741.631 Q2210.8 741.284 2211.82 741.122 Q2212.83 740.937 2213.85 740.937 Q2219.64 740.937 2223.02 744.108 Q2226.4 747.279 2226.4 752.696 Q2226.4 758.274 2222.93 761.376 Q2219.45 764.455 2213.14 764.455 Q2210.96 764.455 2208.69 764.085 Q2206.45 763.714 2204.04 762.974 L2204.04 758.274 Q2206.12 759.409 2208.34 759.964 Q2210.57 760.52 2213.04 760.52 Q2217.05 760.52 2219.39 758.413 Q2221.72 756.307 2221.72 752.696 Q2221.72 749.085 2219.39 746.978 Q2217.05 744.872 2213.04 744.872 Q2211.17 744.872 2209.29 745.288 Q2207.44 745.705 2205.5 746.585 L2205.5 729.224 Z" fill="#000000" fill-rule="nonzero" fill-opacity="1" /><polyline clip-path="url(#clip010)" style="stroke:#e26f46; stroke-linecap:round; stroke-linejoin:round; stroke-width:8; stroke-opacity:1; fill:none" points="1923.22,798.344 2076.92,798.344 "/>
<path clip-path="url(#clip010)" d="M2102.53 781.064 L2108.83 781.064 L2124.15 809.976 L2124.15 781.064 L2128.69 781.064 L2128.69 815.624 L2122.39 815.624 L2107.07 786.712 L2107.07 815.624 L2102.53 815.624 L2102.53 781.064 Z" fill="#000000" fill-rule="nonzero" fill-opacity="1" /><path clip-path="url(#clip010)" d="M2152.02 784.235 Q2146.93 784.235 2143.92 788.031 Q2140.94 791.828 2140.94 798.378 Q2140.94 804.906 2143.92 808.702 Q2146.93 812.499 2152.02 812.499 Q2157.12 812.499 2160.08 808.702 Q2163.07 804.906 2163.07 798.378 Q2163.07 791.828 2160.08 788.031 Q2157.12 784.235 2152.02 784.235 M2152.02 780.439 Q2159.29 780.439 2163.64 785.323 Q2168 790.184 2168 798.378 Q2168 806.55 2163.64 811.434 Q2159.29 816.295 2152.02 816.295 Q2144.73 816.295 2140.36 811.434 Q2136.01 806.573 2136.01 798.378 Q2136.01 790.184 2140.36 785.323 Q2144.73 780.439 2152.02 780.439 Z" fill="#000000" fill-rule="nonzero" fill-opacity="1" /><path clip-path="url(#clip010)" d="M2198.88 810.693 L2198.88 801.411 L2191.24 801.411 L2191.24 797.568 L2203.51 797.568 L2203.51 812.406 Q2200.8 814.327 2197.53 815.323 Q2194.27 816.295 2190.57 816.295 Q2182.46 816.295 2177.88 811.573 Q2173.32 806.827 2173.32 798.378 Q2173.32 789.906 2177.88 785.184 Q2182.46 780.439 2190.57 780.439 Q2193.95 780.439 2196.98 781.272 Q2200.03 782.105 2202.6 783.726 L2202.6 788.703 Q2200.01 786.504 2197.09 785.392 Q2194.18 784.281 2190.96 784.281 Q2184.62 784.281 2181.42 787.823 Q2178.25 791.365 2178.25 798.378 Q2178.25 805.369 2181.42 808.911 Q2184.62 812.452 2190.96 812.452 Q2193.44 812.452 2195.38 812.036 Q2197.32 811.596 2198.88 810.693 Z" fill="#000000" fill-rule="nonzero" fill-opacity="1" /><polyline clip-path="url(#clip010)" style="stroke:#3da44d; stroke-linecap:round; stroke-linejoin:round; stroke-width:8; stroke-opacity:1; fill:none" points="1923.22,850.184 2076.92,850.184 "/>
<path clip-path="url(#clip010)" d="M2130.4 835.566 L2130.4 840.496 Q2128.04 838.297 2125.36 837.209 Q2122.7 836.121 2119.69 836.121 Q2113.76 836.121 2110.61 839.756 Q2107.46 843.367 2107.46 850.218 Q2107.46 857.047 2110.61 860.681 Q2113.76 864.292 2119.69 864.292 Q2122.7 864.292 2125.36 863.204 Q2128.04 862.117 2130.4 859.917 L2130.4 864.802 Q2127.95 866.468 2125.2 867.302 Q2122.46 868.135 2119.41 868.135 Q2111.56 868.135 2107.05 863.343 Q2102.53 858.529 2102.53 850.218 Q2102.53 841.885 2107.05 837.094 Q2111.56 832.279 2119.41 832.279 Q2122.51 832.279 2125.24 833.112 Q2128 833.922 2130.4 835.566 Z" fill="#000000" fill-rule="nonzero" fill-opacity="1" /><path clip-path="url(#clip010)" d="M2151.65 836.075 Q2146.56 836.075 2143.55 839.871 Q2140.57 843.668 2140.57 850.218 Q2140.57 856.746 2143.55 860.542 Q2146.56 864.339 2151.65 864.339 Q2156.75 864.339 2159.71 860.542 Q2162.7 856.746 2162.7 850.218 Q2162.7 843.668 2159.71 839.871 Q2156.75 836.075 2151.65 836.075 M2151.65 832.279 Q2158.92 832.279 2163.27 837.163 Q2167.63 842.024 2167.63 850.218 Q2167.63 858.39 2163.27 863.274 Q2158.92 868.135 2151.65 868.135 Q2144.36 868.135 2139.99 863.274 Q2135.64 858.413 2135.64 850.218 Q2135.64 842.024 2139.99 837.163 Q2144.36 832.279 2151.65 832.279 Z" fill="#000000" fill-rule="nonzero" fill-opacity="1" /><path clip-path="url(#clip010)" d="M2174.94 832.904 L2181.91 832.904 L2190.73 856.422 L2199.59 832.904 L2206.56 832.904 L2206.56 867.464 L2202 867.464 L2202 837.117 L2193.09 860.82 L2188.39 860.82 L2179.48 837.117 L2179.48 867.464 L2174.94 867.464 L2174.94 832.904 Z" fill="#000000" fill-rule="nonzero" fill-opacity="1" /><path clip-path="url(#clip010)" d="M2220.52 836.746 L2220.52 849.732 L2226.4 849.732 Q2229.66 849.732 2231.45 848.043 Q2233.23 846.353 2233.23 843.228 Q2233.23 840.126 2231.45 838.436 Q2229.66 836.746 2226.4 836.746 L2220.52 836.746 M2215.84 832.904 L2226.4 832.904 Q2232.21 832.904 2235.17 835.543 Q2238.16 838.158 2238.16 843.228 Q2238.16 848.343 2235.17 850.959 Q2232.21 853.575 2226.4 853.575 L2220.52 853.575 L2220.52 867.464 L2215.84 867.464 L2215.84 832.904 Z" fill="#000000" fill-rule="nonzero" fill-opacity="1" /><path clip-path="url(#clip010)" d="M2244.43 832.904 L2249.11 832.904 L2249.11 863.529 L2265.94 863.529 L2265.94 867.464 L2244.43 867.464 L2244.43 832.904 Z" fill="#000000" fill-rule="nonzero" fill-opacity="1" /><path clip-path="url(#clip010)" d="M2270.84 832.904 L2292.69 832.904 L2292.69 836.839 L2275.52 836.839 L2275.52 847.07 L2291.98 847.07 L2291.98 851.005 L2275.52 851.005 L2275.52 863.529 L2293.11 863.529 L2293.11 867.464 L2270.84 867.464 L2270.84 832.904 Z" fill="#000000" fill-rule="nonzero" fill-opacity="1" /><path clip-path="url(#clip010)" d="M2299.13 832.904 L2304.15 832.904 L2312.74 845.751 L2321.38 832.904 L2326.4 832.904 L2315.29 849.501 L2327.14 867.464 L2322.12 867.464 L2312.39 852.765 L2302.6 867.464 L2297.56 867.464 L2309.89 849.015 L2299.13 832.904 Z" fill="#000000" fill-rule="nonzero" fill-opacity="1" /><polyline clip-path="url(#clip010)" style="stroke:#c271d2; stroke-linecap:round; stroke-linejoin:round; stroke-width:8; stroke-opacity:1; fill:none" points="1923.22,902.024 2076.92,902.024 "/>
<path clip-path="url(#clip010)" d="M2106.82 915.415 L2106.82 929.165 L2102.53 929.165 L2102.53 893.378 L2106.82 893.378 L2106.82 897.313 Q2108.16 894.998 2110.2 893.887 Q2112.26 892.753 2115.1 892.753 Q2119.83 892.753 2122.77 896.503 Q2125.73 900.253 2125.73 906.364 Q2125.73 912.475 2122.77 916.225 Q2119.83 919.975 2115.1 919.975 Q2112.26 919.975 2110.2 918.864 Q2108.16 917.73 2106.82 915.415 M2121.31 906.364 Q2121.31 901.665 2119.36 899.003 Q2117.44 896.318 2114.06 896.318 Q2110.68 896.318 2108.74 899.003 Q2106.82 901.665 2106.82 906.364 Q2106.82 911.063 2108.74 913.748 Q2110.68 916.41 2114.06 916.41 Q2117.44 916.41 2119.36 913.748 Q2121.31 911.063 2121.31 906.364 Z" fill="#000000" fill-rule="nonzero" fill-opacity="1" /><path clip-path="url(#clip010)" d="M2153.69 885.878 L2153.69 890.438 Q2151.03 889.165 2148.67 888.54 Q2146.31 887.915 2144.11 887.915 Q2140.29 887.915 2138.2 889.396 Q2136.14 890.878 2136.14 893.609 Q2136.14 895.901 2137.51 897.082 Q2138.9 898.239 2142.74 898.957 L2145.57 899.535 Q2150.8 900.531 2153.27 903.054 Q2155.77 905.554 2155.77 909.767 Q2155.77 914.79 2152.39 917.382 Q2149.04 919.975 2142.53 919.975 Q2140.08 919.975 2137.3 919.419 Q2134.55 918.864 2131.58 917.776 L2131.58 912.961 Q2134.43 914.558 2137.16 915.369 Q2139.89 916.179 2142.53 916.179 Q2146.54 916.179 2148.71 914.605 Q2150.89 913.031 2150.89 910.114 Q2150.89 907.568 2149.32 906.133 Q2147.77 904.697 2144.2 903.98 L2141.35 903.424 Q2136.12 902.383 2133.78 900.16 Q2131.45 897.938 2131.45 893.98 Q2131.45 889.396 2134.66 886.758 Q2137.9 884.119 2143.58 884.119 Q2146.01 884.119 2148.53 884.559 Q2151.05 884.998 2153.69 885.878 Z" fill="#000000" fill-rule="nonzero" fill-opacity="1" /><path clip-path="url(#clip010)" d="M2163.07 884.744 L2170.03 884.744 L2178.85 908.262 L2187.72 884.744 L2194.69 884.744 L2194.69 919.304 L2190.13 919.304 L2190.13 888.957 L2181.21 912.66 L2176.51 912.66 L2167.6 888.957 L2167.6 919.304 L2163.07 919.304 L2163.07 884.744 Z" fill="#000000" fill-rule="nonzero" fill-opacity="1" /><path clip-path="url(#clip010)" d="M2215.52 889.35 L2209.18 906.549 L2221.89 906.549 L2215.52 889.35 M2212.88 884.744 L2218.18 884.744 L2231.35 919.304 L2226.49 919.304 L2223.34 910.438 L2207.76 910.438 L2204.62 919.304 L2199.69 919.304 L2212.88 884.744 Z" fill="#000000" fill-rule="nonzero" fill-opacity="1" /><path clip-path="url(#clip010)" d="M2241.07 888.586 L2241.07 915.461 L2246.72 915.461 Q2253.88 915.461 2257.19 912.22 Q2260.52 908.98 2260.52 901.989 Q2260.52 895.045 2257.19 891.827 Q2253.88 888.586 2246.72 888.586 L2241.07 888.586 M2236.4 884.744 L2246.01 884.744 Q2256.05 884.744 2260.75 888.934 Q2265.45 893.1 2265.45 901.989 Q2265.45 910.924 2260.73 915.114 Q2256.01 919.304 2246.01 919.304 L2236.4 919.304 L2236.4 884.744 Z" fill="#000000" fill-rule="nonzero" fill-opacity="1" /></svg>
