<?xml version="1.0" encoding="utf-8"?>
<svg xmlns="http://www.w3.org/2000/svg" xmlns:xlink="http://www.w3.org/1999/xlink" width="600" height="400" viewBox="0 0 2400 1600">
<defs>
  <clipPath id="clip820">
    <rect x="0" y="0" width="2400" height="1600"/>
  </clipPath>
</defs>
<path clip-path="url(#clip820)" d="M0 1600 L2400 1600 L2400 0 L0 0  Z" fill="#ffffff" fill-rule="evenodd" fill-opacity="1"/>
<defs>
  <clipPath id="clip821">
    <rect x="480" y="0" width="1681" height="1600"/>
  </clipPath>
</defs>
<path clip-path="url(#clip820)" d="M47.2441 1552.76 L1820.75 1552.76 L1820.75 47.2441 L47.2441 47.2441  Z" fill="#ffffff" fill-rule="evenodd" fill-opacity="1"/>
<defs>
  <clipPath id="clip822">
    <rect x="47" y="47" width="1775" height="1507"/>
  </clipPath>
</defs>
<polyline clip-path="url(#clip820)" style="stroke:#000000; stroke-linecap:round; stroke-linejoin:round; stroke-width:4; stroke-opacity:1; fill:none" points="47.2441,1552.76 1820.75,1552.76 "/>
<polyline clip-path="url(#clip820)" style="stroke:#000000; stroke-linecap:round; stroke-linejoin:round; stroke-width:4; stroke-opacity:1; fill:none" points="47.2441,1552.76 47.2441,47.2441 "/>
<polyline clip-path="url(#clip822)" style="stroke:#009af9; stroke-linecap:round; stroke-linejoin:round; stroke-width:8; stroke-opacity:1; fill:none" points="97.4376,89.8529 110.612,105.086 123.786,150.266 136.96,223.755 150.134,322.576 163.308,442.153 176.483,576.187 189.657,716.854 202.831,855.49 216.005,983.741 229.179,1094.88 242.353,1184.79 255.528,1252.26 268.702,1298.7 281.876,1327.81 295.05,1344.76 308.224,1354.34 321.398,1359.8 334.572,1362.95 347.747,1364.74 360.921,1365.69 374.095,1366.03 387.269,1365.86 400.443,1365.14 413.617,1363.67 426.792,1361.05 439.966,1356.52 453.14,1348.59 466.314,1334.57 479.488,1310.12 492.662,1269.99 505.836,1209.83 519.011,1127.43 532.185,1023.08 545.359,899.918 558.533,763.88 571.707,622.917 584.881,485.734 598.056,360.539 611.23,254.183 624.404,171.818 637.578,116.929 650.752,91.5741 663.926,96.6274 677.101,131.919 690.275,196.204 703.449,286.982 716.623,400.237 729.797,530.242 742.971,669.634 756.145,809.921 769.32,942.498 782.494,1059.95 795.668,1157.23 808.842,1232.17 822.016,1285.33 835.19,1319.7 848.365,1340.12 861.539,1351.73 874.713,1358.3 887.887,1362.08 901.061,1364.26 914.235,1365.45 927.409,1365.97 940.584,1365.97 953.758,1365.45 966.932,1364.26 980.106,1362.09 993.28,1358.31 1006.45,1351.75 1019.63,1340.16 1032.8,1319.76 1045.98,1285.43 1059.15,1232.31 1072.33,1157.42 1085.5,1060.19 1098.67,942.779 1111.85,810.229 1125.02,669.951 1138.2,530.55 1151.37,400.517 1164.54,287.221 1177.72,196.392 1190.89,132.049 1204.07,96.6968 1217.24,91.5822 1230.42,116.878 1243.59,171.711 1256.76,254.026 1269.94,360.34 1283.11,485.506 1296.29,622.674 1309.46,763.637 1322.63,899.692 1335.81,1022.88 1348.98,1127.27 1362.16,1209.71 1375.33,1269.91 1388.5,1310.07 1401.68,1334.54 1414.85,1348.57 1428.03,1356.51 1441.2,1361.05 1454.38,1363.67 1467.55,1365.14 1480.72,1365.86 1493.9,1366.03 1507.07,1365.69 1520.25,1364.75 1533.42,1362.95 1546.59,1359.81 1559.77,1354.35 1572.94,1344.77 1586.12,1327.82 1599.29,1298.72 1612.47,1252.29 1625.64,1184.83 1638.81,1094.93 1651.99,983.801 1665.16,855.558 1678.34,716.926 1691.51,576.26 1704.68,442.225 1717.86,322.644 1731.03,223.819 1744.21,150.326 1757.38,105.143 1770.56,89.9099 "/>
<polyline clip-path="url(#clip822)" style="stroke:#e26f46; stroke-linecap:round; stroke-linejoin:round; stroke-width:8; stroke-opacity:1; fill:none" points="97.4376,1510.15 110.612,1508.06 123.786,1501.55 136.96,1489.79 150.134,1471.34 163.308,1444.07 176.483,1405.03 189.657,1350.58 202.831,1276.68 216.005,1179.79 229.179,1058.45 242.353,915.443 255.528,759.508 268.702,604.446 281.876,464.421 295.05,348.35 308.224,258.317 321.398,191.955 334.572,145.312 347.747,114.555 360.921,96.7018 374.095,89.8529 387.269,93.2478 400.443,107.266 413.617,133.427 426.792,174.364 439.966,233.673 453.14,315.399 466.314,422.706 479.488,555.353 492.662,706.795 505.836,864.121 519.011,1012.73 532.185,1141.9 545.359,1246.97 558.533,1328.23 571.707,1388.73 584.881,1432.49 598.056,1463.33 611.23,1484.45 624.404,1498.25 637.578,1506.4 650.752,1509.91 663.926,1509.23 677.101,1504.26 690.275,1494.38 703.449,1478.37 716.623,1454.33 729.797,1419.6 742.971,1370.74 756.145,1303.78 769.32,1214.89 782.494,1101.66 795.668,965.234 808.842,812.272 822.016,655.229 835.19,508.84 848.365,384.22 861.539,285.595 874.713,211.73 887.887,158.952 901.061,123.269 914.235,101.372 927.409,90.9885 940.584,90.9774 953.758,101.337 966.932,123.207 980.106,158.856 993.28,211.592 1006.45,285.405 1019.63,383.972 1032.8,508.537 1045.98,654.886 1059.15,811.921 1072.33,964.907 1085.5,1101.38 1098.67,1214.66 1111.85,1303.61 1125.02,1370.61 1138.2,1419.51 1151.37,1454.27 1164.54,1478.32 1177.72,1494.34 1190.89,1504.24 1204.07,1509.22 1217.24,1509.91 1230.42,1506.41 1243.59,1498.27 1256.76,1484.48 1269.94,1463.38 1283.11,1432.55 1296.29,1388.82 1309.46,1328.35 1322.63,1247.13 1335.81,1142.1 1348.98,1012.97 1362.16,864.385 1375.33,707.061 1388.5,555.595 1401.68,422.905 1414.85,315.552 1428.03,233.785 1441.2,174.441 1454.38,133.477 1467.55,107.296 1480.72,93.262 1493.9,89.8552 1507.07,96.6942 1520.25,114.539 1533.42,145.286 1546.59,191.92 1559.77,258.27 1572.94,348.291 1586.12,464.35 1599.29,604.365 1612.47,759.424 1625.64,915.364 1638.81,1058.38 1651.99,1179.74 1665.16,1276.64 1678.34,1350.55 1691.51,1405.01 1704.68,1444.05 1717.86,1471.33 1731.03,1489.78 1744.21,1501.54 1757.38,1508.05 1770.56,1510.14 "/>
<polyline clip-path="url(#clip822)" style="stroke:#3da44d; stroke-linecap:round; stroke-linejoin:round; stroke-width:8; stroke-opacity:1; fill:none" points="97.4376,588.655 110.612,585.295 123.786,575.302 136.96,558.959 150.134,536.755 163.308,509.411 176.483,477.886 189.657,443.335 202.831,407.022 216.005,370.173 229.179,333.813 242.353,298.652 255.528,265.073 268.702,233.259 281.876,203.421 295.05,175.964 308.224,151.456 321.398,130.488 334.572,113.548 347.747,100.992 360.921,93.0501 374.095,89.8529 387.269,91.4487 400.443,97.8134 413.617,108.846 426.792,124.353 439.966,144.022 453.14,167.407 466.314,193.946 479.488,223.043 492.662,254.227 505.836,287.232 519.011,321.893 532.185,357.913 545.359,394.698 558.533,431.319 571.707,466.601 584.881,499.274 598.056,528.134 611.23,552.148 624.404,570.517 637.578,582.674 650.752,588.271 663.926,587.156 677.101,579.36 690.275,565.096 703.449,544.783 716.623,519.062 729.797,488.815 742.971,455.138 756.145,419.273 769.32,382.476 782.494,345.858 795.668,310.24 808.842,276.106 822.016,243.686 835.19,213.155 848.365,184.844 861.539,159.284 874.713,137.073 887.887,118.741 901.061,104.69 914.235,95.1881 927.409,90.3976 940.584,90.392 953.758,95.1716 966.932,104.662 980.106,118.704 993.28,137.026 1006.45,159.228 1019.63,184.781 1032.8,213.085 1045.98,243.612 1059.15,276.027 1072.33,310.157 1085.5,345.772 1098.67,382.388 1111.85,419.184 1125.02,455.052 1138.2,488.734 1151.37,518.99 1164.54,544.72 1177.72,565.045 1190.89,579.321 1204.07,587.131 1217.24,588.259 1230.42,582.675 1243.59,570.532 1256.76,552.175 1269.94,528.171 1283.11,499.321 1296.29,466.654 1309.46,431.377 1322.63,394.758 1335.81,357.973 1348.98,321.953 1362.16,287.291 1375.33,254.283 1388.5,223.098 1401.68,193.998 1414.85,167.457 1428.03,144.067 1441.2,124.392 1454.38,108.881 1467.55,97.8421 1480.72,91.4717 1493.9,89.8704 1507.07,93.0621 1520.25,100.999 1533.42,113.55 1546.59,130.485 1559.77,151.45 1572.94,175.953 1586.12,203.408 1599.29,233.242 1612.47,265.053 1625.64,298.63 1638.81,333.788 1651.99,370.145 1665.16,406.992 1678.34,443.304 1691.51,477.854 1704.68,509.379 1717.86,536.722 1731.03,558.926 1744.21,575.27 1757.38,585.262 1770.56,588.623 "/>
<polyline clip-path="url(#clip822)" style="stroke:#c271d2; stroke-linecap:round; stroke-linejoin:round; stroke-width:8; stroke-opacity:1; fill:none" points="97.4376,89.8529 110.612,105.086 123.786,150.266 136.96,223.755 150.134,322.576 163.308,442.153 176.483,576.187 189.657,716.854 202.831,855.49 216.005,983.741 229.179,1094.88 242.353,1184.79 255.528,1252.26 268.702,1298.7 281.876,1327.81 295.05,1344.76 308.224,1354.34 321.398,1359.8 334.572,1362.95 347.747,1364.74 360.921,1365.69 374.095,1366.03 387.269,1365.86 400.443,1365.14 413.617,1363.67 426.792,1361.05 439.966,1356.52 453.14,1348.59 466.314,1334.57 479.488,1310.12 492.662,1269.99 505.836,1209.83 519.011,1127.43 532.185,1023.08 545.359,899.919 558.533,763.881 571.707,622.918 584.881,485.735 598.056,360.539 611.23,254.184 624.404,171.818 637.578,116.93 650.752,91.5742 663.926,96.6274 677.101,131.919 690.275,196.204 703.449,286.982 716.623,400.236 729.797,530.242 742.971,669.633 756.145,809.92 769.32,942.497 782.494,1059.95 795.668,1157.23 808.842,1232.17 822.016,1285.33 835.19,1319.7 848.365,1340.12 861.539,1351.73 874.713,1358.3 887.887,1362.08 901.061,1364.26 914.235,1365.45 927.409,1365.97 940.584,1365.97 953.758,1365.45 966.932,1364.26 980.106,1362.09 993.28,1358.31 1006.45,1351.75 1019.63,1340.16 1032.8,1319.76 1045.98,1285.43 1059.15,1232.31 1072.33,1157.42 1085.5,1060.19 1098.67,942.78 1111.85,810.23 1125.02,669.952 1138.2,530.551 1151.37,400.518 1164.54,287.222 1177.72,196.392 1190.89,132.049 1204.07,96.6971 1217.24,91.5824 1230.42,116.878 1243.59,171.71 1256.76,254.026 1269.94,360.34 1283.11,485.506 1296.29,622.673 1309.46,763.637 1322.63,899.691 1335.81,1022.88 1348.98,1127.26 1362.16,1209.71 1375.33,1269.91 1388.5,1310.07 1401.68,1334.54 1414.85,1348.57 1428.03,1356.51 1441.2,1361.05 1454.38,1363.67 1467.55,1365.14 1480.72,1365.86 1493.9,1366.03 1507.07,1365.69 1520.25,1364.75 1533.42,1362.95 1546.59,1359.81 1559.77,1354.35 1572.94,1344.77 1586.12,1327.82 1599.29,1298.72 1612.47,1252.29 1625.64,1184.83 1638.81,1094.93 1651.99,983.801 1665.16,855.558 1678.34,716.926 1691.51,576.26 1704.68,442.225 1717.86,322.644 1731.03,223.819 1744.21,150.326 1757.38,105.144 1770.56,89.9102 "/>
<path clip-path="url(#clip820)" d="M1897.6 953.864 L2352.76 953.864 L2352.76 694.664 L1897.6 694.664  Z" fill="#ffffff" fill-rule="evenodd" fill-opacity="1"/>
<polyline clip-path="url(#clip820)" style="stroke:#000000; stroke-linecap:round; stroke-linejoin:round; stroke-width:4; stroke-opacity:1; fill:none" points="1897.6,953.864 2352.76,953.864 2352.76,694.664 1897.6,694.664 1897.6,953.864 "/>
<polyline clip-path="url(#clip820)" style="stroke:#009af9; stroke-linecap:round; stroke-linejoin:round; stroke-width:8; stroke-opacity:1; fill:none" points="1923.22,746.504 2076.92,746.504 "/>
<path clip-path="url(#clip820)" d="M2128.09 758.853 L2128.09 749.571 L2120.45 749.571 L2120.45 745.728 L2132.72 745.728 L2132.72 760.566 Q2130.01 762.487 2126.75 763.483 Q2123.48 764.455 2119.78 764.455 Q2111.68 764.455 2107.09 759.733 Q2102.53 754.987 2102.53 746.538 Q2102.53 738.066 2107.09 733.344 Q2111.68 728.599 2119.78 728.599 Q2123.16 728.599 2126.19 729.432 Q2129.25 730.265 2131.82 731.886 L2131.82 736.863 Q2129.22 734.664 2126.31 733.552 Q2123.39 732.441 2120.17 732.441 Q2113.83 732.441 2110.64 735.983 Q2107.46 739.525 2107.46 746.538 Q2107.46 753.529 2110.64 757.071 Q2113.83 760.612 2120.17 760.612 Q2122.65 760.612 2124.59 760.196 Q2126.54 759.756 2128.09 758.853 Z" fill="#000000" fill-rule="nonzero" fill-opacity="1" /><path clip-path="url(#clip820)" d="M2145.94 733.066 L2145.94 759.941 L2151.58 759.941 Q2158.74 759.941 2162.05 756.7 Q2165.38 753.46 2165.38 746.469 Q2165.38 739.525 2162.05 736.307 Q2158.74 733.066 2151.58 733.066 L2145.94 733.066 M2141.26 729.224 L2150.87 729.224 Q2160.91 729.224 2165.61 733.414 Q2170.31 737.58 2170.31 746.469 Q2170.31 755.404 2165.59 759.594 Q2160.87 763.784 2150.87 763.784 L2141.26 763.784 L2141.26 729.224 Z" fill="#000000" fill-rule="nonzero" fill-opacity="1" /><path clip-path="url(#clip820)" d="M2177.76 729.224 L2197.63 729.224 L2197.63 733.159 L2182.44 733.159 L2182.44 743.344 L2196.14 743.344 L2196.14 747.279 L2182.44 747.279 L2182.44 763.784 L2177.76 763.784 L2177.76 729.224 Z" fill="#000000" fill-rule="nonzero" fill-opacity="1" /><path clip-path="url(#clip820)" d="M2205.5 729.224 L2223.85 729.224 L2223.85 733.159 L2209.78 733.159 L2209.78 741.631 Q2210.8 741.284 2211.82 741.122 Q2212.83 740.937 2213.85 740.937 Q2219.64 740.937 2223.02 744.108 Q2226.4 747.279 2226.4 752.696 Q2226.4 758.274 2222.93 761.376 Q2219.45 764.455 2213.14 764.455 Q2210.96 764.455 2208.69 764.085 Q2206.45 763.714 2204.04 762.974 L2204.04 758.274 Q2206.12 759.409 2208.34 759.964 Q2210.57 760.52 2213.04 760.52 Q2217.05 760.52 2219.39 758.413 Q2221.72 756.307 2221.72 752.696 Q2221.72 749.085 2219.39 746.978 Q2217.05 744.872 2213.04 744.872 Q2211.17 744.872 2209.29 745.288 Q2207.44 745.705 2205.5 746.585 L2205.5 729.224 Z" fill="#000000" fill-rule="nonzero" fill-opacity="1" /><polyline clip-path="url(#clip820)" style="stroke:#e26f46; stroke-linecap:round; stroke-linejoin:round; stroke-width:8; stroke-opacity:1; fill:none" points="1923.22,798.344 2076.92,798.344 "/>
<path clip-path="url(#clip820)" d="M2102.53 781.064 L2108.83 781.064 L2124.15 809.976 L2124.15 781.064 L2128.69 781.064 L2128.69 815.624 L2122.39 815.624 L2107.07 786.712 L2107.07 815.624 L2102.53 815.624 L2102.53 781.064 Z" fill="#000000" fill-rule="nonzero" fill-opacity="1" /><path clip-path="url(#clip820)" d="M2152.02 784.235 Q2146.93 784.235 2143.92 788.031 Q2140.94 791.828 2140.94 798.378 Q2140.94 804.906 2143.92 808.702 Q2146.93 812.499 2152.02 812.499 Q2157.12 812.499 2160.08 808.702 Q2163.07 804.906 2163.07 798.378 Q2163.07 791.828 2160.08 788.031 Q2157.12 784.235 2152.02 784.235 M2152.02 780.439 Q2159.29 780.439 2163.64 785.323 Q2168 790.184 2168 798.378 Q2168 806.55 2163.64 811.434 Q2159.29 816.295 2152.02 816.295 Q2144.73 816.295 2140.36 811.434 Q2136.01 806.573 2136.01 798.378 Q2136.01 790.184 2140.36 785.323 Q2144.73 780.439 2152.02 780.439 Z" fill="#000000" fill-rule="nonzero" fill-opacity="1" /><path clip-path="url(#clip820)" d="M2198.88 810.693 L2198.88 801.411 L2191.24 801.411 L2191.24 797.568 L2203.51 797.568 L2203.51 812.406 Q2200.8 814.327 2197.53 815.323 Q2194.27 816.295 2190.57 816.295 Q2182.46 816.295 2177.88 811.573 Q2173.32 806.827 2173.32 798.378 Q2173.32 789.906 2177.88 785.184 Q2182.46 780.439 2190.57 780.439 Q2193.95 780.439 2196.98 781.272 Q2200.03 782.105 2202.6 783.726 L2202.6 788.703 Q2200.01 786.504 2197.09 785.392 Q2194.18 784.281 2190.96 784.281 Q2184.62 784.281 2181.42 787.823 Q2178.25 791.365 2178.25 798.378 Q2178.25 805.369 2181.42 808.911 Q2184.62 812.452 2190.96 812.452 Q2193.44 812.452 2195.38 812.036 Q2197.32 811.596 2198.88 810.693 Z" fill="#000000" fill-rule="nonzero" fill-opacity="1" /><polyline clip-path="url(#clip820)" style="stroke:#3da44d; stroke-linecap:round; stroke-linejoin:round; stroke-width:8; stroke-opacity:1; fill:none" points="1923.22,850.184 2076.92,850.184 "/>
<path clip-path="url(#clip820)" d="M2130.4 835.566 L2130.4 840.496 Q2128.04 838.297 2125.36 837.209 Q2122.7 836.121 2119.69 836.121 Q2113.76 836.121 2110.61 839.756 Q2107.46 843.367 2107.46 850.218 Q2107.46 857.047 2110.61 860.681 Q2113.76 864.292 2119.69 864.292 Q2122.7 864.292 2125.36 863.204 Q2128.04 862.117 2130.4 859.917 L2130.4 864.802 Q2127.95 866.468 2125.2 867.302 Q2122.46 868.135 2119.41 868.135 Q2111.56 868.135 2107.05 863.343 Q2102.53 858.529 2102.53 850.218 Q2102.53 841.885 2107.05 837.094 Q2111.56 832.279 2119.41 832.279 Q2122.51 832.279 2125.24 833.112 Q2128 833.922 2130.4 835.566 Z" fill="#000000" fill-rule="nonzero" fill-opacity="1" /><path clip-path="url(#clip820)" d="M2151.65 836.075 Q2146.56 836.075 2143.55 839.871 Q2140.57 843.668 2140.57 850.218 Q2140.57 856.746 2143.55 860.542 Q2146.56 864.339 2151.65 864.339 Q2156.75 864.339 2159.71 860.542 Q2162.7 856.746 2162.7 850.218 Q2162.7 843.668 2159.71 839.871 Q2156.75 836.075 2151.65 836.075 M2151.65 832.279 Q2158.92 832.279 2163.27 837.163 Q2167.63 842.024 2167.63 850.218 Q2167.63 858.39 2163.27 863.274 Q2158.92 868.135 2151.65 868.135 Q2144.36 868.135 2139.99 863.274 Q2135.64 858.413 2135.64 850.218 Q2135.64 842.024 2139.99 837.163 Q2144.36 832.279 2151.65 832.279 Z" fill="#000000" fill-rule="nonzero" fill-opacity="1" /><path clip-path="url(#clip820)" d="M2174.94 832.904 L2181.91 832.904 L2190.73 856.422 L2199.59 832.904 L2206.56 832.904 L2206.56 867.464 L2202 867.464 L2202 837.117 L2193.09 860.82 L2188.39 860.82 L2179.48 837.117 L2179.48 867.464 L2174.94 867.464 L2174.94 832.904 Z" fill="#000000" fill-rule="nonzero" fill-opacity="1" /><path clip-path="url(#clip820)" d="M2220.52 836.746 L2220.52 849.732 L2226.4 849.732 Q2229.66 849.732 2231.45 848.043 Q2233.23 846.353 2233.23 843.228 Q2233.23 840.126 2231.45 838.436 Q2229.66 836.746 2226.4 836.746 L2220.52 836.746 M2215.84 832.904 L2226.4 832.904 Q2232.21 832.904 2235.17 835.543 Q2238.16 838.158 2238.16 843.228 Q2238.16 848.343 2235.17 850.959 Q2232.21 853.575 2226.4 853.575 L2220.52 853.575 L2220.52 867.464 L2215.84 867.464 L2215.84 832.904 Z" fill="#000000" fill-rule="nonzero" fill-opacity="1" /><path clip-path="url(#clip820)" d="M2244.43 832.904 L2249.11 832.904 L2249.11 863.529 L2265.94 863.529 L2265.94 867.464 L2244.43 867.464 L2244.43 832.904 Z" fill="#000000" fill-rule="nonzero" fill-opacity="1" /><path clip-path="url(#clip820)" d="M2270.84 832.904 L2292.69 832.904 L2292.69 836.839 L2275.52 836.839 L2275.52 847.07 L2291.98 847.07 L2291.98 851.005 L2275.52 851.005 L2275.52 863.529 L2293.11 863.529 L2293.11 867.464 L2270.84 867.464 L2270.84 832.904 Z" fill="#000000" fill-rule="nonzero" fill-opacity="1" /><path clip-path="url(#clip820)" d="M2299.13 832.904 L2304.15 832.904 L2312.74 845.751 L2321.38 832.904 L2326.4 832.904 L2315.29 849.501 L2327.14 867.464 L2322.12 867.464 L2312.39 852.765 L2302.6 867.464 L2297.56 867.464 L2309.89 849.015 L2299.13 832.904 Z" fill="#000000" fill-rule="nonzero" fill-opacity="1" /><polyline clip-path="url(#clip820)" style="stroke:#c271d2; stroke-linecap:round; stroke-linejoin:round; stroke-width:8; stroke-opacity:1; fill:none" points="1923.22,902.024 2076.92,902.024 "/>
<path clip-path="url(#clip820)" d="M2106.82 915.415 L2106.82 929.165 L2102.53 929.165 L2102.53 893.378 L2106.82 893.378 L2106.82 897.313 Q2108.16 894.998 2110.2 893.887 Q2112.26 892.753 2115.1 892.753 Q2119.83 892.753 2122.77 896.503 Q2125.73 900.253 2125.73 906.364 Q2125.73 912.475 2122.77 916.225 Q2119.83 919.975 2115.1 919.975 Q2112.26 919.975 2110.2 918.864 Q2108.16 917.73 2106.82 915.415 M2121.31 906.364 Q2121.31 901.665 2119.36 899.003 Q2117.44 896.318 2114.06 896.318 Q2110.68 896.318 2108.74 899.003 Q2106.82 901.665 2106.82 906.364 Q2106.82 911.063 2108.74 913.748 Q2110.68 916.41 2114.06 916.41 Q2117.44 916.41 2119.36 913.748 Q2121.31 911.063 2121.31 906.364 Z" fill="#000000" fill-rule="nonzero" fill-opacity="1" /><path clip-path="url(#clip820)" d="M2153.69 885.878 L2153.69 890.438 Q2151.03 889.165 2148.67 888.54 Q2146.31 887.915 2144.11 887.915 Q2140.29 887.915 2138.2 889.396 Q2136.14 890.878 2136.14 893.609 Q2136.14 895.901 2137.51 897.082 Q2138.9 898.239 2142.74 898.957 L2145.57 899.535 Q2150.8 900.531 2153.27 903.054 Q2155.77 905.554 2155.77 909.767 Q2155.77 914.79 2152.39 917.382 Q2149.04 919.975 2142.53 919.975 Q2140.08 919.975 2137.3 919.419 Q2134.55 918.864 2131.58 917.776 L2131.58 912.961 Q2134.43 914.558 2137.16 915.369 Q2139.89 916.179 2142.53 916.179 Q2146.54 916.179 2148.71 914.605 Q2150.89 913.031 2150.89 910.114 Q2150.89 907.568 2149.32 906.133 Q2147.77 904.697 2144.2 903.98 L2141.35 903.424 Q2136.12 902.383 2133.78 900.16 Q2131.45 897.938 2131.45 893.98 Q2131.45 889.396 2134.66 886.758 Q2137.9 884.119 2143.58 884.119 Q2146.01 884.119 2148.53 884.559 Q2151.05 884.998 2153.69 885.878 Z" fill="#000000" fill-rule="nonzero" fill-opacity="1" /><path clip-path="url(#clip820)" d="M2163.07 884.744 L2170.03 884.744 L2178.85 908.262 L2187.72 884.744 L2194.69 884.744 L2194.69 919.304 L2190.13 919.304 L2190.13 888.957 L2181.21 912.66 L2176.51 912.66 L2167.6 888.957 L2167.6 919.304 L2163.07 919.304 L2163.07 884.744 Z" fill="#000000" fill-rule="nonzero" fill-opacity="1" /><path clip-path="url(#clip820)" d="M2215.52 889.35 L2209.18 906.549 L2221.89 906.549 L2215.52 889.35 M2212.88 884.744 L2218.18 884.744 L2231.35 919.304 L2226.49 919.304 L2223.34 910.438 L2207.76 910.438 L2204.62 919.304 L2199.69 919.304 L2212.88 884.744 Z" fill="#000000" fill-rule="nonzero" fill-opacity="1" /><path clip-path="url(#clip820)" d="M2241.07 888.586 L2241.07 915.461 L2246.72 915.461 Q2253.88 915.461 2257.19 912.22 Q2260.52 908.98 2260.52 901.989 Q2260.52 895.045 2257.19 891.827 Q2253.88 888.586 2246.72 888.586 L2241.07 888.586 M2236.4 884.744 L2246.01 884.744 Q2256.05 884.744 2260.75 888.934 Q2265.45 893.1 2265.45 901.989 Q2265.45 910.924 2260.73 915.114 Q2256.01 919.304 2246.01 919.304 L2236.4 919.304 L2236.4 884.744 Z" fill="#000000" fill-rule="nonzero" fill-opacity="1" /></svg>
