<?xml version="1.0" encoding="utf-8"?>
<svg xmlns="http://www.w3.org/2000/svg" xmlns:xlink="http://www.w3.org/1999/xlink" width="600" height="400" viewBox="0 0 2400 1600">
<defs>
  <clipPath id="clip560">
    <rect x="0" y="0" width="2400" height="1600"/>
  </clipPath>
</defs>
<path clip-path="url(#clip560)" d="M0 1600 L2400 1600 L2400 0 L0 0  Z" fill="#ffffff" fill-rule="evenodd" fill-opacity="1"/>
<defs>
  <clipPath id="clip561">
    <rect x="480" y="0" width="1681" height="1600"/>
  </clipPath>
</defs>
<path clip-path="url(#clip560)" d="M47.2441 1552.76 L1820.75 1552.76 L1820.75 47.2441 L47.2441 47.2441  Z" fill="#ffffff" fill-rule="evenodd" fill-opacity="1"/>
<defs>
  <clipPath id="clip562">
    <rect x="47" y="47" width="1775" height="1507"/>
  </clipPath>
</defs>
<polyline clip-path="url(#clip560)" style="stroke:#000000; stroke-linecap:round; stroke-linejoin:round; stroke-width:4; stroke-opacity:1; fill:none" points="47.2441,1552.76 1820.75,1552.76 "/>
<polyline clip-path="url(#clip560)" style="stroke:#000000; stroke-linecap:round; stroke-linejoin:round; stroke-width:4; stroke-opacity:1; fill:none" points="47.2441,1552.76 47.2441,47.2441 "/>
<polyline clip-path="url(#clip562)" style="stroke:#009af9; stroke-linecap:round; stroke-linejoin:round; stroke-width:8; stroke-opacity:1; fill:none" points="97.4376,1359.01 110.612,1358.33 123.786,1356.09 136.96,1351.67 150.134,1343.69 163.308,1329.45 176.483,1304.29 189.657,1262.06 202.831,1197.3 216.005,1107.2 229.179,992.104 242.353,855.904 255.528,706.025 268.702,552.618 281.876,407.007 295.05,280.047 308.224,180.879 321.398,116.261 334.572,90.3713 347.747,104.827 360.921,158.729 374.095,248.635 387.269,368.516 400.443,509.864 413.617,662.213 426.792,814.213 439.966,955.207 453.14,1076.87 466.314,1174.27 479.488,1246.09 492.662,1294.28 505.836,1323.65 519.011,1340.44 532.185,1349.84 545.359,1355.09 558.533,1357.86 571.707,1358.96 584.881,1358.66 598.056,1356.91 611.23,1353.21 624.404,1346.45 637.578,1334.38 650.752,1312.92 663.926,1276.19 677.101,1218.27 690.275,1135.49 703.449,1027.28 716.623,896.489 729.797,749.565 742.971,596.026 756.145,447.035 769.32,313.733 782.494,205.841 795.668,130.833 808.842,93.6264 822.016,96.5605 835.19,139.454 848.365,219.596 861.539,331.694 874.713,467.919 887.887,618.277 901.061,771.529 914.235,916.643 927.409,1044.48 940.584,1149.09 953.758,1228.16 966.932,1282.71 980.106,1316.83 993.28,1336.59 1006.45,1347.69 1019.63,1353.9 1032.8,1357.27 1045.98,1358.79 1059.15,1358.89 1072.33,1357.58 1085.5,1354.51 1098.67,1348.8 1111.85,1338.57 1125.02,1320.33 1138.2,1288.62 1151.37,1237.25 1164.54,1161.77 1177.72,1060.69 1190.89,935.847 1204.07,792.671 1217.24,639.92 1230.42,488.458 1243.59,349.594 1256.76,233.565 1269.94,148.539 1283.11,100.174 1296.29,91.5396 1309.46,123.172 1322.63,193.09 1335.81,296.743 1348.98,427.008 1362.16,574.443 1375.33,728.038 1388.5,876.53 1401.68,1010.08 1414.85,1121.73 1428.03,1208.14 1441.2,1269.42 1454.38,1308.81 1467.55,1332.04 1480.72,1345.14 1493.9,1352.48 1507.07,1356.52 1520.25,1358.51 1533.42,1359 1546.59,1358.11 1559.77,1355.61 1572.94,1350.79 1586.12,1342.13 1599.29,1326.66 1612.47,1299.45 1625.64,1254.29 1638.81,1186 1651.99,1092.22 1665.16,973.791 1678.34,835.099 1691.51,684.043 1704.68,531.041 1717.86,387.449 1731.03,263.938 1744.21,169.335 1757.38,110.038 1770.56,89.8529 "/>
<polyline clip-path="url(#clip562)" style="stroke:#e26f46; stroke-linecap:round; stroke-linejoin:round; stroke-width:8; stroke-opacity:1; fill:none" points="97.4376,89.8529 110.612,99.2208 123.786,128.11 136.96,178.768 150.134,254.454 163.308,358.259 176.483,490.663 189.657,646.187 202.831,812.095 216.005,972.365 229.179,1114.07 242.353,1230.68 255.528,1321.44 268.702,1389.08 281.876,1437.63 295.05,1471.13 308.224,1492.91 321.398,1505.39 334.572,1510.06 347.747,1507.48 360.921,1497.33 374.095,1478.4 387.269,1448.54 400.443,1404.66 413.617,1342.89 426.792,1259.08 439.966,1149.95 453.14,1015.02 466.314,858.977 479.488,693.069 492.662,533.029 505.836,393.151 519.011,281.054 532.185,197.619 545.359,140.188 558.533,105.385 571.707,90.6043 584.881,94.6234 598.056,117.782 611.23,161.936 624.404,230.136 637.578,325.706 650.752,450.2 663.926,600.143 677.101,764.705 690.275,928.136 703.449,1076.09 716.623,1200.14 729.797,1298.1 742.971,1371.94 756.145,1425.5 769.32,1462.91 782.494,1487.74 795.668,1502.68 808.842,1509.48 822.016,1508.96 835.19,1501.05 848.365,1484.81 861.539,1458.34 874.713,1418.83 887.887,1362.59 901.061,1285.46 914.235,1183.78 927.409,1056 940.584,905.115 953.758,740.528 966.932,577.163 980.106,430.414 993.28,310.056 1006.45,218.623 1019.63,154.123 1032.8,113.178 1045.98,92.8734 1059.15,91.5598 1072.33,109.126 1085.5,147.015 1098.67,207.993 1111.85,295.455 1125.02,411.754 1138.2,555.204 1151.37,717.088 1164.54,882.488 1177.72,1036.02 1190.89,1167.37 1204.07,1272.71 1217.24,1353.1 1230.42,1412.02 1243.59,1453.65 1256.76,1481.76 1269.94,1499.31 1283.11,1508.31 1296.29,1509.85 1309.46,1504.11 1322.63,1490.41 1335.81,1467.11 1348.98,1431.67 1362.16,1380.63 1375.33,1309.91 1388.5,1215.54 1401.68,1095.16 1414.85,950.231 1428.03,788.223 1441.2,622.826 1454.38,469.994 1467.55,341.537 1480.72,241.9 1493.9,170.023 1507.07,122.676 1520.25,96.695 1533.42,90.0251 1546.59,102.105 1559.77,133.941 1572.94,187.965 1586.12,267.511 1599.29,375.477 1612.47,511.698 1625.64,669.632 1638.81,835.708 1651.99,993.982 1665.16,1132.34 1678.34,1245.2 1691.51,1332.44 1704.68,1397.09 1717.86,1443.26 1731.03,1474.9 1744.21,1495.23 1757.38,1506.53 1770.56,1510.15 "/>
<polyline clip-path="url(#clip562)" style="stroke:#3da44d; stroke-linecap:round; stroke-linejoin:round; stroke-width:8; stroke-opacity:1; fill:none" points="97.4376,89.8529 110.612,92.4423 123.786,100.123 136.96,112.63 150.134,129.51 163.308,150.142 176.483,173.819 189.657,199.914 202.831,228.016 216.005,257.869 229.179,289.135 242.353,321.174 255.528,352.983 268.702,383.271 281.876,410.624 295.05,433.691 308.224,451.325 321.398,462.67 334.572,467.187 347.747,464.666 360.921,455.226 374.095,439.309 387.269,417.683 400.443,391.42 413.617,361.824 426.792,330.307 439.966,298.216 453.14,266.649 466.314,236.348 479.488,207.723 492.662,181.025 505.836,156.603 519.011,135.032 532.185,117.014 545.359,103.207 558.533,94.1169 571.707,90.0608 584.881,91.1765 598.056,97.4266 611.23,108.597 624.404,124.288 637.578,143.922 650.752,166.804 663.926,192.262 677.101,219.822 690.275,249.204 703.449,280.117 716.623,312.023 729.797,344.021 742.971,374.885 756.145,403.219 769.32,427.636 782.494,446.92 795.668,460.127 808.842,466.626 822.016,466.115 835.19,458.617 848.365,444.481 861.539,424.387 874.713,399.321 887.887,370.532 901.061,339.418 914.235,307.364 927.409,275.555 940.584,244.838 953.758,215.705 966.932,188.429 980.106,163.309 993.28,140.853 1006.45,121.749 1019.63,106.681 1032.8,96.2031 1045.98,90.688 1059.15,90.3234 1072.33,95.1217 1085.5,104.92 1098.67,119.372 1111.85,137.949 1125.02,159.977 1138.2,184.759 1151.37,211.754 1164.54,240.64 1177.72,271.158 1190.89,302.857 1204.07,334.943 1217.24,366.271 1230.42,395.474 1243.59,421.145 1256.76,442.008 1269.94,457.031 1283.11,465.493 1296.29,466.998 1309.46,461.476 1322.63,449.184 1335.81,430.705 1348.98,406.942 1362.16,379.078 1375.33,348.483 1388.5,316.564 1401.68,284.581 1414.85,253.485 1428.03,223.865 1441.2,196.032 1454.38,170.253 1467.55,146.968 1480.72,126.831 1493.9,110.543 1507.07,98.7043 1520.25,91.741 1533.42,89.8927 1546.59,93.2215 1559.77,101.615 1572.94,114.781 1586.12,132.241 1599.29,153.354 1612.47,177.413 1625.64,203.817 1638.81,232.186 1651.99,262.27 1665.16,293.697 1678.34,325.775 1691.51,357.454 1704.68,387.412 1717.86,414.235 1731.03,436.593 1744.21,453.378 1757.38,463.776 1770.56,467.296 "/>
<polyline clip-path="url(#clip562)" style="stroke:#c271d2; stroke-linecap:round; stroke-linejoin:round; stroke-width:8; stroke-opacity:1; fill:none" points="97.4376,1359.01 110.612,1358.33 123.786,1356.09 136.96,1351.67 150.134,1343.69 163.308,1329.45 176.483,1304.29 189.657,1262.06 202.831,1197.3 216.005,1107.2 229.179,992.104 242.353,855.904 255.528,706.025 268.702,552.618 281.876,407.007 295.05,280.047 308.224,180.879 321.398,116.261 334.572,90.3716 347.747,104.827 360.921,158.729 374.095,248.635 387.269,368.516 400.443,509.865 413.617,662.213 426.792,814.214 439.966,955.208 453.14,1076.87 466.314,1174.27 479.488,1246.09 492.662,1294.28 505.836,1323.65 519.011,1340.44 532.185,1349.84 545.359,1355.09 558.533,1357.86 571.707,1358.96 584.881,1358.66 598.056,1356.91 611.23,1353.21 624.404,1346.45 637.578,1334.38 650.752,1312.92 663.926,1276.19 677.101,1218.27 690.275,1135.49 703.449,1027.28 716.623,896.488 729.797,749.565 742.971,596.025 756.145,447.035 769.32,313.733 782.494,205.841 795.668,130.833 808.842,93.6265 822.016,96.5608 835.19,139.454 848.365,219.596 861.539,331.695 874.713,467.919 887.887,618.278 901.061,771.529 914.235,916.644 927.409,1044.48 940.584,1149.09 953.758,1228.16 966.932,1282.71 980.106,1316.83 993.28,1336.59 1006.45,1347.69 1019.63,1353.9 1032.8,1357.27 1045.98,1358.79 1059.15,1358.89 1072.33,1357.58 1085.5,1354.51 1098.67,1348.8 1111.85,1338.57 1125.02,1320.33 1138.2,1288.62 1151.37,1237.25 1164.54,1161.77 1177.72,1060.69 1190.89,935.847 1204.07,792.671 1217.24,639.92 1230.42,488.458 1243.59,349.594 1256.76,233.565 1269.94,148.539 1283.11,100.174 1296.29,91.5397 1309.46,123.173 1322.63,193.09 1335.81,296.743 1348.98,427.008 1362.16,574.443 1375.33,728.038 1388.5,876.53 1401.68,1010.08 1414.85,1121.73 1428.03,1208.14 1441.2,1269.42 1454.38,1308.81 1467.55,1332.04 1480.72,1345.14 1493.9,1352.48 1507.07,1356.52 1520.25,1358.51 1533.42,1359 1546.59,1358.11 1559.77,1355.61 1572.94,1350.79 1586.12,1342.13 1599.29,1326.66 1612.47,1299.45 1625.64,1254.29 1638.81,1186 1651.99,1092.22 1665.16,973.791 1678.34,835.099 1691.51,684.043 1704.68,531.041 1717.86,387.449 1731.03,263.938 1744.21,169.335 1757.38,110.038 1770.56,89.8529 "/>
<path clip-path="url(#clip560)" d="M1897.6 953.864 L2352.76 953.864 L2352.76 694.664 L1897.6 694.664  Z" fill="#ffffff" fill-rule="evenodd" fill-opacity="1"/>
<polyline clip-path="url(#clip560)" style="stroke:#000000; stroke-linecap:round; stroke-linejoin:round; stroke-width:4; stroke-opacity:1; fill:none" points="1897.6,953.864 2352.76,953.864 2352.76,694.664 1897.6,694.664 1897.6,953.864 "/>
<polyline clip-path="url(#clip560)" style="stroke:#009af9; stroke-linecap:round; stroke-linejoin:round; stroke-width:8; stroke-opacity:1; fill:none" points="1923.22,746.504 2076.92,746.504 "/>
<path clip-path="url(#clip560)" d="M2128.09 758.853 L2128.09 749.571 L2120.45 749.571 L2120.45 745.728 L2132.72 745.728 L2132.72 760.566 Q2130.01 762.487 2126.75 763.483 Q2123.48 764.455 2119.78 764.455 Q2111.68 764.455 2107.09 759.733 Q2102.53 754.987 2102.53 746.538 Q2102.53 738.066 2107.09 733.344 Q2111.68 728.599 2119.78 728.599 Q2123.16 728.599 2126.19 729.432 Q2129.25 730.265 2131.82 731.886 L2131.82 736.863 Q2129.22 734.664 2126.31 733.552 Q2123.39 732.441 2120.17 732.441 Q2113.83 732.441 2110.64 735.983 Q2107.46 739.525 2107.46 746.538 Q2107.46 753.529 2110.64 757.071 Q2113.83 760.612 2120.17 760.612 Q2122.65 760.612 2124.59 760.196 Q2126.54 759.756 2128.09 758.853 Z" fill="#000000" fill-rule="nonzero" fill-opacity="1" /><path clip-path="url(#clip560)" d="M2145.94 733.066 L2145.94 759.941 L2151.58 759.941 Q2158.74 759.941 2162.05 756.7 Q2165.38 753.46 2165.38 746.469 Q2165.38 739.525 2162.05 736.307 Q2158.74 733.066 2151.58 733.066 L2145.94 733.066 M2141.26 729.224 L2150.87 729.224 Q2160.91 729.224 2165.61 733.414 Q2170.31 737.58 2170.31 746.469 Q2170.31 755.404 2165.59 759.594 Q2160.87 763.784 2150.87 763.784 L2141.26 763.784 L2141.26 729.224 Z" fill="#000000" fill-rule="nonzero" fill-opacity="1" /><path clip-path="url(#clip560)" d="M2177.76 729.224 L2197.63 729.224 L2197.63 733.159 L2182.44 733.159 L2182.44 743.344 L2196.14 743.344 L2196.14 747.279 L2182.44 747.279 L2182.44 763.784 L2177.76 763.784 L2177.76 729.224 Z" fill="#000000" fill-rule="nonzero" fill-opacity="1" /><path clip-path="url(#clip560)" d="M2205.5 729.224 L2223.85 729.224 L2223.85 733.159 L2209.78 733.159 L2209.78 741.631 Q2210.8 741.284 2211.82 741.122 Q2212.83 740.937 2213.85 740.937 Q2219.64 740.937 2223.02 744.108 Q2226.4 747.279 2226.4 752.696 Q2226.4 758.274 2222.93 761.376 Q2219.45 764.455 2213.14 764.455 Q2210.96 764.455 2208.69 764.085 Q2206.45 763.714 2204.04 762.974 L2204.04 758.274 Q2206.12 759.409 2208.34 759.964 Q2210.57 760.52 2213.04 760.52 Q2217.05 760.52 2219.39 758.413 Q2221.72 756.307 2221.72 752.696 Q2221.72 749.085 2219.39 746.978 Q2217.05 744.872 2213.04 744.872 Q2211.17 744.872 2209.29 745.288 Q2207.44 745.705 2205.5 746.585 L2205.5 729.224 Z" fill="#000000" fill-rule="nonzero" fill-opacity="1" /><polyline clip-path="url(#clip560)" style="stroke:#e26f46; stroke-linecap:round; stroke-linejoin:round; stroke-width:8; stroke-opacity:1; fill:none" points="1923.22,798.344 2076.92,798.344 "/>
<path clip-path="url(#clip560)" d="M2102.53 781.064 L2108.83 781.064 L2124.15 809.976 L2124.15 781.064 L2128.69 781.064 L2128.69 815.624 L2122.39 815.624 L2107.07 786.712 L2107.07 815.624 L2102.53 815.624 L2102.53 781.064 Z" fill="#000000" fill-rule="nonzero" fill-opacity="1" /><path clip-path="url(#clip560)" d="M2152.02 784.235 Q2146.93 784.235 2143.92 788.031 Q2140.94 791.828 2140.94 798.378 Q2140.94 804.906 2143.92 808.702 Q2146.93 812.499 2152.02 812.499 Q2157.12 812.499 2160.08 808.702 Q2163.07 804.906 2163.07 798.378 Q2163.07 791.828 2160.08 788.031 Q2157.12 784.235 2152.02 784.235 M2152.02 780.439 Q2159.29 780.439 2163.64 785.323 Q2168 790.184 2168 798.378 Q2168 806.55 2163.64 811.434 Q2159.29 816.295 2152.02 816.295 Q2144.73 816.295 2140.36 811.434 Q2136.01 806.573 2136.01 798.378 Q2136.01 790.184 2140.36 785.323 Q2144.73 780.439 2152.02 780.439 Z" fill="#000000" fill-rule="nonzero" fill-opacity="1" /><path clip-path="url(#clip560)" d="M2198.88 810.693 L2198.88 801.411 L2191.24 801.411 L2191.24 797.568 L2203.51 797.568 L2203.51 812.406 Q2200.8 814.327 2197.53 815.323 Q2194.27 816.295 2190.57 816.295 Q2182.46 816.295 2177.88 811.573 Q2173.32 806.827 2173.32 798.378 Q2173.32 789.906 2177.88 785.184 Q2182.46 780.439 2190.57 780.439 Q2193.95 780.439 2196.98 781.272 Q2200.03 782.105 2202.6 783.726 L2202.6 788.703 Q2200.01 786.504 2197.09 785.392 Q2194.18 784.281 2190.96 784.281 Q2184.62 784.281 2181.42 787.823 Q2178.25 791.365 2178.25 798.378 Q2178.25 805.369 2181.42 808.911 Q2184.62 812.452 2190.96 812.452 Q2193.44 812.452 2195.38 812.036 Q2197.32 811.596 2198.88 810.693 Z" fill="#000000" fill-rule="nonzero" fill-opacity="1" /><polyline clip-path="url(#clip560)" style="stroke:#3da44d; stroke-linecap:round; stroke-linejoin:round; stroke-width:8; stroke-opacity:1; fill:none" points="1923.22,850.184 2076.92,850.184 "/>
<path clip-path="url(#clip560)" d="M2130.4 835.566 L2130.4 840.496 Q2128.04 838.297 2125.36 837.209 Q2122.7 836.121 2119.69 836.121 Q2113.76 836.121 2110.61 839.756 Q2107.46 843.367 2107.46 850.218 Q2107.46 857.047 2110.61 860.681 Q2113.76 864.292 2119.69 864.292 Q2122.7 864.292 2125.36 863.204 Q2128.04 862.117 2130.4 859.917 L2130.4 864.802 Q2127.95 866.468 2125.2 867.302 Q2122.46 868.135 2119.41 868.135 Q2111.56 868.135 2107.05 863.343 Q2102.53 858.529 2102.53 850.218 Q2102.53 841.885 2107.05 837.094 Q2111.56 832.279 2119.41 832.279 Q2122.51 832.279 2125.24 833.112 Q2128 833.922 2130.4 835.566 Z" fill="#000000" fill-rule="nonzero" fill-opacity="1" /><path clip-path="url(#clip560)" d="M2151.65 836.075 Q2146.56 836.075 2143.55 839.871 Q2140.57 843.668 2140.57 850.218 Q2140.57 856.746 2143.55 860.542 Q2146.56 864.339 2151.65 864.339 Q2156.75 864.339 2159.71 860.542 Q2162.7 856.746 2162.7 850.218 Q2162.7 843.668 2159.71 839.871 Q2156.75 836.075 2151.65 836.075 M2151.65 832.279 Q2158.92 832.279 2163.27 837.163 Q2167.63 842.024 2167.63 850.218 Q2167.63 858.39 2163.27 863.274 Q2158.92 868.135 2151.65 868.135 Q2144.36 868.135 2139.99 863.274 Q2135.64 858.413 2135.64 850.218 Q2135.64 842.024 2139.99 837.163 Q2144.36 832.279 2151.65 832.279 Z" fill="#000000" fill-rule="nonzero" fill-opacity="1" /><path clip-path="url(#clip560)" d="M2174.94 832.904 L2181.91 832.904 L2190.73 856.422 L2199.59 832.904 L2206.56 832.904 L2206.56 867.464 L2202 867.464 L2202 837.117 L2193.09 860.82 L2188.39 860.82 L2179.48 837.117 L2179.48 867.464 L2174.94 867.464 L2174.94 832.904 Z" fill="#000000" fill-rule="nonzero" fill-opacity="1" /><path clip-path="url(#clip560)" d="M2220.52 836.746 L2220.52 849.732 L2226.4 849.732 Q2229.66 849.732 2231.45 848.043 Q2233.23 846.353 2233.23 843.228 Q2233.23 840.126 2231.45 838.436 Q2229.66 836.746 2226.4 836.746 L2220.52 836.746 M2215.84 832.904 L2226.4 832.904 Q2232.21 832.904 2235.17 835.543 Q2238.16 838.158 2238.16 843.228 Q2238.16 848.343 2235.17 850.959 Q2232.21 853.575 2226.4 853.575 L2220.52 853.575 L2220.52 867.464 L2215.84 867.464 L2215.84 832.904 Z" fill="#000000" fill-rule="nonzero" fill-opacity="1" /><path clip-path="url(#clip560)" d="M2244.43 832.904 L2249.11 832.904 L2249.11 863.529 L2265.94 863.529 L2265.94 867.464 L2244.43 867.464 L2244.43 832.904 Z" fill="#000000" fill-rule="nonzero" fill-opacity="1" /><path clip-path="url(#clip560)" d="M2270.84 832.904 L2292.69 832.904 L2292.69 836.839 L2275.52 836.839 L2275.52 847.07 L2291.98 847.07 L2291.98 851.005 L2275.52 851.005 L2275.52 863.529 L2293.11 863.529 L2293.11 867.464 L2270.84 867.464 L2270.84 832.904 Z" fill="#000000" fill-rule="nonzero" fill-opacity="1" /><path clip-path="url(#clip560)" d="M2299.13 832.904 L2304.15 832.904 L2312.74 845.751 L2321.38 832.904 L2326.4 832.904 L2315.29 849.501 L2327.14 867.464 L2322.12 867.464 L2312.39 852.765 L2302.6 867.464 L2297.56 867.464 L2309.89 849.015 L2299.13 832.904 Z" fill="#000000" fill-rule="nonzero" fill-opacity="1" /><polyline clip-path="url(#clip560)" style="stroke:#c271d2; stroke-linecap:round; stroke-linejoin:round; stroke-width:8; stroke-opacity:1; fill:none" points="1923.22,902.024 2076.92,902.024 "/>
<path clip-path="url(#clip560)" d="M2106.82 915.415 L2106.82 929.165 L2102.53 929.165 L2102.53 893.378 L2106.82 893.378 L2106.82 897.313 Q2108.16 894.998 2110.2 893.887 Q2112.26 892.753 2115.1 892.753 Q2119.83 892.753 2122.77 896.503 Q2125.73 900.253 2125.73 906.364 Q2125.73 912.475 2122.77 916.225 Q2119.83 919.975 2115.1 919.975 Q2112.26 919.975 2110.2 918.864 Q2108.16 917.73 2106.82 915.415 M2121.31 906.364 Q2121.31 901.665 2119.36 899.003 Q2117.44 896.318 2114.06 896.318 Q2110.68 896.318 2108.74 899.003 Q2106.82 901.665 2106.82 906.364 Q2106.82 911.063 2108.74 913.748 Q2110.68 916.41 2114.06 916.41 Q2117.44 916.41 2119.36 913.748 Q2121.31 911.063 2121.31 906.364 Z" fill="#000000" fill-rule="nonzero" fill-opacity="1" /><path clip-path="url(#clip560)" d="M2153.69 885.878 L2153.69 890.438 Q2151.03 889.165 2148.67 888.54 Q2146.31 887.915 2144.11 887.915 Q2140.29 887.915 2138.2 889.396 Q2136.14 890.878 2136.14 893.609 Q2136.14 895.901 2137.51 897.082 Q2138.9 898.239 2142.74 898.957 L2145.57 899.535 Q2150.8 900.531 2153.27 903.054 Q2155.77 905.554 2155.77 909.767 Q2155.77 914.79 2152.39 917.382 Q2149.04 919.975 2142.53 919.975 Q2140.08 919.975 2137.3 919.419 Q2134.55 918.864 2131.58 917.776 L2131.58 912.961 Q2134.43 914.558 2137.16 915.369 Q2139.89 916.179 2142.53 916.179 Q2146.54 916.179 2148.71 914.605 Q2150.89 913.031 2150.89 910.114 Q2150.89 907.568 2149.32 906.133 Q2147.77 904.697 2144.2 903.98 L2141.35 903.424 Q2136.12 902.383 2133.78 900.16 Q2131.45 897.938 2131.45 893.98 Q2131.45 889.396 2134.66 886.758 Q2137.9 884.119 2143.58 884.119 Q2146.01 884.119 2148.53 884.559 Q2151.05 884.998 2153.69 885.878 Z" fill="#000000" fill-rule="nonzero" fill-opacity="1" /><path clip-path="url(#clip560)" d="M2163.07 884.744 L2170.03 884.744 L2178.85 908.262 L2187.72 884.744 L2194.69 884.744 L2194.69 919.304 L2190.13 919.304 L2190.13 888.957 L2181.21 912.66 L2176.51 912.66 L2167.6 888.957 L2167.6 919.304 L2163.07 919.304 L2163.07 884.744 Z" fill="#000000" fill-rule="nonzero" fill-opacity="1" /><path clip-path="url(#clip560)" d="M2215.52 889.35 L2209.18 906.549 L2221.89 906.549 L2215.52 889.35 M2212.88 884.744 L2218.18 884.744 L2231.35 919.304 L2226.49 919.304 L2223.34 910.438 L2207.76 910.438 L2204.62 919.304 L2199.69 919.304 L2212.88 884.744 Z" fill="#000000" fill-rule="nonzero" fill-opacity="1" /><path clip-path="url(#clip560)" d="M2241.07 888.586 L2241.07 915.461 L2246.72 915.461 Q2253.88 915.461 2257.19 912.22 Q2260.52 908.98 2260.52 901.989 Q2260.52 895.045 2257.19 891.827 Q2253.88 888.586 2246.72 888.586 L2241.07 888.586 M2236.4 884.744 L2246.01 884.744 Q2256.05 884.744 2260.75 888.934 Q2265.45 893.1 2265.45 901.989 Q2265.45 910.924 2260.73 915.114 Q2256.01 919.304 2246.01 919.304 L2236.4 919.304 L2236.4 884.744 Z" fill="#000000" fill-rule="nonzero" fill-opacity="1" /></svg>
