<?xml version="1.0" encoding="utf-8"?>
<svg xmlns="http://www.w3.org/2000/svg" xmlns:xlink="http://www.w3.org/1999/xlink" width="600" height="400" viewBox="0 0 2400 1600">
<defs>
  <clipPath id="clip800">
    <rect x="0" y="0" width="2400" height="1600"/>
  </clipPath>
</defs>
<path clip-path="url(#clip800)" d="M0 1600 L2400 1600 L2400 0 L0 0  Z" fill="#ffffff" fill-rule="evenodd" fill-opacity="1"/>
<defs>
  <clipPath id="clip801">
    <rect x="480" y="0" width="1681" height="1600"/>
  </clipPath>
</defs>
<path clip-path="url(#clip800)" d="M47.2441 1552.76 L1820.75 1552.76 L1820.75 47.2441 L47.2441 47.2441  Z" fill="#ffffff" fill-rule="evenodd" fill-opacity="1"/>
<defs>
  <clipPath id="clip802">
    <rect x="47" y="47" width="1775" height="1507"/>
  </clipPath>
</defs>
<polyline clip-path="url(#clip800)" style="stroke:#000000; stroke-linecap:round; stroke-linejoin:round; stroke-width:4; stroke-opacity:1; fill:none" points="47.2441,1552.76 1820.75,1552.76 "/>
<polyline clip-path="url(#clip800)" style="stroke:#000000; stroke-linecap:round; stroke-linejoin:round; stroke-width:4; stroke-opacity:1; fill:none" points="47.2441,1552.76 47.2441,47.2441 "/>
<polyline clip-path="url(#clip802)" style="stroke:#009af9; stroke-linecap:round; stroke-linejoin:round; stroke-width:8; stroke-opacity:1; fill:none" points="97.4376,1366.01 110.612,1365.75 123.786,1364.93 136.96,1363.3 150.134,1360.43 163.308,1355.45 176.483,1346.73 189.657,1331.31 202.831,1304.6 216.005,1261.36 229.179,1197.55 242.353,1111.36 255.528,1003.53 268.702,877.696 281.876,740.2 295.05,599.217 308.224,463.452 321.398,340.933 334.572,238.242 347.747,160.243 360.921,110.165 374.095,89.8529 387.269,100.001 400.443,140.267 413.617,209.212 426.792,304.099 439.966,420.634 453.14,552.801 466.314,692.996 479.488,832.623 492.662,963.18 505.836,1077.58 519.011,1171.23 532.185,1242.44 545.359,1292.22 558.533,1323.9 571.707,1342.52 584.881,1353.07 598.056,1359.06 611.23,1362.51 624.404,1364.49 637.578,1365.55 650.752,1365.98 663.926,1365.9 677.101,1365.28 690.275,1363.95 703.449,1361.57 716.623,1357.43 729.797,1350.21 742.971,1337.46 756.145,1315.11 769.32,1277.94 782.494,1221.32 795.668,1142.66 808.842,1041.8 822.016,921.402 835.19,786.959 848.365,646.172 861.539,507.717 874.713,379.96 887.887,270.021 901.061,183.34 914.235,123.669 927.409,93.2859 940.584,93.2501 953.758,123.563 966.932,183.167 980.106,269.788 993.28,379.68 1006.45,507.403 1019.63,645.842 1032.8,786.635 1045.98,921.103 1059.15,1041.54 1072.33,1142.45 1085.5,1221.16 1098.67,1277.83 1111.85,1315.05 1125.02,1337.43 1138.2,1350.19 1151.37,1357.42 1164.54,1361.56 1177.72,1363.95 1190.89,1365.28 1204.07,1365.9 1217.24,1365.98 1230.42,1365.55 1243.59,1364.49 1256.76,1362.52 1269.94,1359.07 1283.11,1353.08 1296.29,1342.54 1309.46,1323.94 1322.63,1292.28 1335.81,1242.54 1348.98,1171.36 1362.16,1077.75 1375.33,963.378 1388.5,832.842 1401.68,693.224 1414.85,553.026 1428.03,420.843 1441.2,304.283 1454.38,209.364 1467.55,140.384 1480.72,100.082 1493.9,89.8971 1507.07,110.175 1520.25,160.221 1533.42,238.193 1546.59,340.86 1559.77,463.362 1572.94,599.117 1586.12,740.098 1599.29,877.6 1612.47,1003.45 1625.64,1111.29 1638.81,1197.5 1651.99,1261.32 1665.16,1304.58 1678.34,1331.3 1691.51,1346.73 1704.68,1355.45 1717.86,1360.43 1731.03,1363.3 1744.21,1364.93 1757.38,1365.76 1770.56,1366.01 "/>
<polyline clip-path="url(#clip802)" style="stroke:#e26f46; stroke-linecap:round; stroke-linejoin:round; stroke-width:8; stroke-opacity:1; fill:none" points="97.4376,89.8529 110.612,94.9664 123.786,110.877 136.96,139.294 150.134,183.028 163.308,245.801 176.483,331.632 189.657,443.325 202.831,579.76 216.005,733.199 229.179,890.027 242.353,1035.97 255.528,1161.27 268.702,1262.22 281.876,1339.75 295.05,1397.17 308.224,1438.51 321.398,1467.53 334.572,1487.28 347.747,1500.04 360.921,1507.35 374.095,1510.15 387.269,1508.76 400.443,1503.03 413.617,1492.23 426.792,1475.04 439.966,1449.42 453.14,1412.59 466.314,1361 479.488,1290.63 492.662,1197.77 505.836,1080.48 519.011,940.662 532.185,786.034 545.359,629.78 558.533,486.436 571.707,366.054 584.881,271.756 598.056,201.701 611.23,152.046 624.404,118.871 637.578,99.0245 650.752,90.4209 663.926,92.1086 677.101,104.277 690.275,128.254 703.449,166.494 716.623,222.453 729.797,300.163 742.971,403.078 756.145,531.745 769.32,680.802 782.494,838.186 795.668,989.142 808.842,1122.04 822.016,1231.21 835.19,1316.27 848.365,1379.97 861.539,1426.24 874.713,1459 887.887,1481.55 901.061,1496.44 914.235,1505.44 927.409,1509.68 940.584,1509.69 953.758,1505.46 966.932,1496.47 980.106,1481.59 993.28,1459.06 1006.45,1426.33 1019.63,1380.1 1032.8,1316.45 1045.98,1231.44 1059.15,1122.32 1072.33,989.474 1085.5,838.547 1098.67,681.16 1111.85,532.066 1125.02,403.341 1138.2,300.365 1151.37,222.601 1164.54,166.597 1177.72,128.321 1190.89,104.315 1204.07,92.1245 1217.24,90.4168 1230.42,99.0012 1243.59,118.827 1256.76,151.978 1269.94,201.602 1283.11,271.622 1296.29,365.878 1309.46,486.22 1322.63,629.533 1335.81,785.779 1348.98,940.421 1362.16,1080.27 1375.33,1197.6 1388.5,1290.5 1401.68,1360.9 1414.85,1412.52 1428.03,1449.37 1441.2,1475 1454.38,1492.21 1467.55,1503.01 1480.72,1508.75 1493.9,1510.14 1507.07,1507.35 1520.25,1500.04 1533.42,1487.28 1546.59,1467.54 1559.77,1438.54 1572.94,1397.2 1586.12,1339.8 1599.29,1262.29 1612.47,1161.35 1625.64,1036.06 1638.81,890.133 1651.99,733.307 1665.16,579.858 1678.34,443.406 1691.51,331.693 1704.68,245.844 1717.86,183.057 1731.03,139.312 1744.21,110.887 1757.38,94.9725 1770.56,89.8577 "/>
<polyline clip-path="url(#clip802)" style="stroke:#3da44d; stroke-linecap:round; stroke-linejoin:round; stroke-width:8; stroke-opacity:1; fill:none" points="97.4376,89.8529 110.612,92.2499 123.786,99.4045 136.96,111.202 150.134,127.429 163.308,147.755 176.483,171.709 189.657,198.715 202.831,228.188 216.005,259.69 229.179,292.984 242.353,327.899 255.528,364.098 268.702,400.928 281.876,437.412 295.05,472.347 308.224,504.463 321.398,532.578 334.572,555.698 347.747,573.062 360.921,584.141 374.095,588.623 387.269,586.385 400.443,577.487 413.617,562.178 426.792,540.911 439.966,514.367 453.14,483.465 466.314,449.334 479.488,413.228 492.662,376.39 505.836,339.891 519.011,304.495 532.185,270.636 545.359,238.517 558.533,208.327 571.707,180.435 584.881,155.393 598.056,133.795 611.23,116.154 624.404,102.846 637.578,94.1219 650.752,90.1266 663.926,90.9211 677.101,96.4937 690.275,106.757 703.449,121.534 716.623,140.535 729.797,163.336 742.971,189.389 756.145,218.096 769.32,248.955 782.494,281.667 795.668,316.065 808.842,351.889 822.016,388.601 835.19,425.326 848.365,460.918 861.539,494.114 874.713,523.686 887.887,548.571 901.061,567.927 914.235,581.15 927.409,587.857 940.584,587.865 953.758,581.173 966.932,567.966 980.106,548.624 993.28,523.751 1006.45,494.188 1019.63,461 1032.8,425.412 1045.98,388.689 1059.15,351.975 1072.33,316.149 1085.5,281.748 1098.67,249.032 1111.85,218.169 1125.02,189.457 1138.2,163.398 1151.37,140.589 1164.54,121.58 1177.72,106.794 1190.89,96.5207 1204.07,90.9384 1217.24,90.1341 1230.42,94.1199 1243.59,102.835 1256.76,116.133 1269.94,133.767 1283.11,155.357 1296.29,180.392 1309.46,208.279 1322.63,238.464 1335.81,270.579 1348.98,304.434 1362.16,339.825 1375.33,376.322 1388.5,413.158 1401.68,449.265 1414.85,483.398 1428.03,514.304 1441.2,540.854 1454.38,562.128 1467.55,577.444 1480.72,586.349 1493.9,588.595 1507.07,584.122 1520.25,573.05 1533.42,555.694 1546.59,532.58 1559.77,504.47 1572.94,472.358 1586.12,437.428 1599.29,400.946 1612.47,364.117 1625.64,327.92 1638.81,293.006 1651.99,259.712 1665.16,228.211 1678.34,198.738 1691.51,171.732 1704.68,147.778 1717.86,127.452 1731.03,111.224 1744.21,99.4264 1757.38,92.2715 1770.56,89.8745 "/>
<polyline clip-path="url(#clip802)" style="stroke:#c271d2; stroke-linecap:round; stroke-linejoin:round; stroke-width:8; stroke-opacity:1; fill:none" points="97.4376,1366.01 110.612,1365.75 123.786,1364.93 136.96,1363.3 150.134,1360.43 163.308,1355.45 176.483,1346.73 189.657,1331.31 202.831,1304.6 216.005,1261.36 229.179,1197.55 242.353,1111.36 255.528,1003.53 268.702,877.697 281.876,740.2 295.05,599.217 308.224,463.452 321.398,340.933 334.572,238.243 347.747,160.244 360.921,110.165 374.095,89.8529 387.269,100.001 400.443,140.267 413.617,209.211 426.792,304.098 439.966,420.633 453.14,552.801 466.314,692.995 479.488,832.622 492.662,963.179 505.836,1077.58 519.011,1171.23 532.185,1242.44 545.359,1292.22 558.533,1323.9 571.707,1342.52 584.881,1353.07 598.056,1359.06 611.23,1362.51 624.404,1364.49 637.578,1365.55 650.752,1365.98 663.926,1365.9 677.101,1365.28 690.275,1363.95 703.449,1361.57 716.623,1357.43 729.797,1350.21 742.971,1337.46 756.145,1315.11 769.32,1277.94 782.494,1221.32 795.668,1142.66 808.842,1041.8 822.016,921.403 835.19,786.96 848.365,646.173 861.539,507.718 874.713,379.961 887.887,270.022 901.061,183.34 914.235,123.669 927.409,93.2862 940.584,93.2501 953.758,123.562 966.932,183.167 980.106,269.788 993.28,379.679 1006.45,507.402 1019.63,645.841 1032.8,786.634 1045.98,921.102 1059.15,1041.54 1072.33,1142.45 1085.5,1221.16 1098.67,1277.83 1111.85,1315.05 1125.02,1337.43 1138.2,1350.19 1151.37,1357.42 1164.54,1361.56 1177.72,1363.95 1190.89,1365.28 1204.07,1365.9 1217.24,1365.98 1230.42,1365.55 1243.59,1364.49 1256.76,1362.52 1269.94,1359.07 1283.11,1353.08 1296.29,1342.54 1309.46,1323.94 1322.63,1292.28 1335.81,1242.54 1348.98,1171.36 1362.16,1077.75 1375.33,963.378 1388.5,832.843 1401.68,693.225 1414.85,553.027 1428.03,420.844 1441.2,304.283 1454.38,209.365 1467.55,140.385 1480.72,100.082 1493.9,89.8974 1507.07,110.175 1520.25,160.222 1533.42,238.193 1546.59,340.86 1559.77,463.362 1572.94,599.117 1586.12,740.098 1599.29,877.6 1612.47,1003.44 1625.64,1111.29 1638.81,1197.5 1651.99,1261.32 1665.16,1304.58 1678.34,1331.3 1691.51,1346.73 1704.68,1355.45 1717.86,1360.43 1731.03,1363.3 1744.21,1364.93 1757.38,1365.76 1770.56,1366.01 "/>
<path clip-path="url(#clip800)" d="M1897.6 953.864 L2352.76 953.864 L2352.76 694.664 L1897.6 694.664  Z" fill="#ffffff" fill-rule="evenodd" fill-opacity="1"/>
<polyline clip-path="url(#clip800)" style="stroke:#000000; stroke-linecap:round; stroke-linejoin:round; stroke-width:4; stroke-opacity:1; fill:none" points="1897.6,953.864 2352.76,953.864 2352.76,694.664 1897.6,694.664 1897.6,953.864 "/>
<polyline clip-path="url(#clip800)" style="stroke:#009af9; stroke-linecap:round; stroke-linejoin:round; stroke-width:8; stroke-opacity:1; fill:none" points="1923.22,746.504 2076.92,746.504 "/>
<path clip-path="url(#clip800)" d="M2128.09 758.853 L2128.09 749.571 L2120.45 749.571 L2120.45 745.728 L2132.72 745.728 L2132.72 760.566 Q2130.01 762.487 2126.75 763.483 Q2123.48 764.455 2119.78 764.455 Q2111.68 764.455 2107.09 759.733 Q2102.53 754.987 2102.53 746.538 Q2102.53 738.066 2107.09 733.344 Q2111.68 728.599 2119.78 728.599 Q2123.16 728.599 2126.19 729.432 Q2129.25 730.265 2131.82 731.886 L2131.82 736.863 Q2129.22 734.664 2126.31 733.552 Q2123.39 732.441 2120.17 732.441 Q2113.83 732.441 2110.64 735.983 Q2107.46 739.525 2107.46 746.538 Q2107.46 753.529 2110.64 757.071 Q2113.83 760.612 2120.17 760.612 Q2122.65 760.612 2124.59 760.196 Q2126.54 759.756 2128.09 758.853 Z" fill="#000000" fill-rule="nonzero" fill-opacity="1" /><path clip-path="url(#clip800)" d="M2145.94 733.066 L2145.94 759.941 L2151.58 759.941 Q2158.74 759.941 2162.05 756.7 Q2165.38 753.46 2165.38 746.469 Q2165.38 739.525 2162.05 736.307 Q2158.74 733.066 2151.58 733.066 L2145.94 733.066 M2141.26 729.224 L2150.87 729.224 Q2160.91 729.224 2165.61 733.414 Q2170.31 737.58 2170.31 746.469 Q2170.31 755.404 2165.59 759.594 Q2160.87 763.784 2150.87 763.784 L2141.26 763.784 L2141.26 729.224 Z" fill="#000000" fill-rule="nonzero" fill-opacity="1" /><path clip-path="url(#clip800)" d="M2177.76 729.224 L2197.63 729.224 L2197.63 733.159 L2182.44 733.159 L2182.44 743.344 L2196.14 743.344 L2196.14 747.279 L2182.44 747.279 L2182.44 763.784 L2177.76 763.784 L2177.76 729.224 Z" fill="#000000" fill-rule="nonzero" fill-opacity="1" /><path clip-path="url(#clip800)" d="M2205.5 729.224 L2223.85 729.224 L2223.85 733.159 L2209.78 733.159 L2209.78 741.631 Q2210.8 741.284 2211.82 741.122 Q2212.83 740.937 2213.85 740.937 Q2219.64 740.937 2223.02 744.108 Q2226.4 747.279 2226.4 752.696 Q2226.4 758.274 2222.93 761.376 Q2219.45 764.455 2213.14 764.455 Q2210.96 764.455 2208.69 764.085 Q2206.45 763.714 2204.04 762.974 L2204.04 758.274 Q2206.12 759.409 2208.34 759.964 Q2210.57 760.52 2213.04 760.52 Q2217.05 760.52 2219.39 758.413 Q2221.72 756.307 2221.72 752.696 Q2221.72 749.085 2219.39 746.978 Q2217.05 744.872 2213.04 744.872 Q2211.17 744.872 2209.29 745.288 Q2207.44 745.705 2205.5 746.585 L2205.5 729.224 Z" fill="#000000" fill-rule="nonzero" fill-opacity="1" /><polyline clip-path="url(#clip800)" style="stroke:#e26f46; stroke-linecap:round; stroke-linejoin:round; stroke-width:8; stroke-opacity:1; fill:none" points="1923.22,798.344 2076.92,798.344 "/>
<path clip-path="url(#clip800)" d="M2102.53 781.064 L2108.83 781.064 L2124.15 809.976 L2124.15 781.064 L2128.69 781.064 L2128.69 815.624 L2122.39 815.624 L2107.07 786.712 L2107.07 815.624 L2102.53 815.624 L2102.53 781.064 Z" fill="#000000" fill-rule="nonzero" fill-opacity="1" /><path clip-path="url(#clip800)" d="M2152.02 784.235 Q2146.93 784.235 2143.92 788.031 Q2140.94 791.828 2140.94 798.378 Q2140.94 804.906 2143.92 808.702 Q2146.93 812.499 2152.02 812.499 Q2157.12 812.499 2160.08 808.702 Q2163.07 804.906 2163.07 798.378 Q2163.07 791.828 2160.08 788.031 Q2157.12 784.235 2152.02 784.235 M2152.02 780.439 Q2159.29 780.439 2163.64 785.323 Q2168 790.184 2168 798.378 Q2168 806.55 2163.64 811.434 Q2159.29 816.295 2152.02 816.295 Q2144.73 816.295 2140.36 811.434 Q2136.01 806.573 2136.01 798.378 Q2136.01 790.184 2140.36 785.323 Q2144.73 780.439 2152.02 780.439 Z" fill="#000000" fill-rule="nonzero" fill-opacity="1" /><path clip-path="url(#clip800)" d="M2198.88 810.693 L2198.88 801.411 L2191.24 801.411 L2191.24 797.568 L2203.51 797.568 L2203.51 812.406 Q2200.8 814.327 2197.53 815.323 Q2194.27 816.295 2190.57 816.295 Q2182.46 816.295 2177.88 811.573 Q2173.32 806.827 2173.32 798.378 Q2173.32 789.906 2177.88 785.184 Q2182.46 780.439 2190.57 780.439 Q2193.95 780.439 2196.98 781.272 Q2200.03 782.105 2202.6 783.726 L2202.6 788.703 Q2200.01 786.504 2197.09 785.392 Q2194.18 784.281 2190.96 784.281 Q2184.62 784.281 2181.42 787.823 Q2178.25 791.365 2178.25 798.378 Q2178.25 805.369 2181.42 808.911 Q2184.62 812.452 2190.96 812.452 Q2193.44 812.452 2195.38 812.036 Q2197.32 811.596 2198.88 810.693 Z" fill="#000000" fill-rule="nonzero" fill-opacity="1" /><polyline clip-path="url(#clip800)" style="stroke:#3da44d; stroke-linecap:round; stroke-linejoin:round; stroke-width:8; stroke-opacity:1; fill:none" points="1923.22,850.184 2076.92,850.184 "/>
<path clip-path="url(#clip800)" d="M2130.4 835.566 L2130.4 840.496 Q2128.04 838.297 2125.36 837.209 Q2122.7 836.121 2119.69 836.121 Q2113.76 836.121 2110.61 839.756 Q2107.46 843.367 2107.46 850.218 Q2107.46 857.047 2110.61 860.681 Q2113.76 864.292 2119.69 864.292 Q2122.7 864.292 2125.36 863.204 Q2128.04 862.117 2130.4 859.917 L2130.4 864.802 Q2127.95 866.468 2125.2 867.302 Q2122.46 868.135 2119.41 868.135 Q2111.56 868.135 2107.05 863.343 Q2102.53 858.529 2102.53 850.218 Q2102.53 841.885 2107.05 837.094 Q2111.56 832.279 2119.41 832.279 Q2122.51 832.279 2125.24 833.112 Q2128 833.922 2130.4 835.566 Z" fill="#000000" fill-rule="nonzero" fill-opacity="1" /><path clip-path="url(#clip800)" d="M2151.65 836.075 Q2146.56 836.075 2143.55 839.871 Q2140.57 843.668 2140.57 850.218 Q2140.57 856.746 2143.55 860.542 Q2146.56 864.339 2151.65 864.339 Q2156.75 864.339 2159.71 860.542 Q2162.7 856.746 2162.7 850.218 Q2162.7 843.668 2159.71 839.871 Q2156.75 836.075 2151.65 836.075 M2151.65 832.279 Q2158.92 832.279 2163.27 837.163 Q2167.63 842.024 2167.63 850.218 Q2167.63 858.39 2163.27 863.274 Q2158.92 868.135 2151.65 868.135 Q2144.36 868.135 2139.99 863.274 Q2135.64 858.413 2135.64 850.218 Q2135.64 842.024 2139.99 837.163 Q2144.36 832.279 2151.65 832.279 Z" fill="#000000" fill-rule="nonzero" fill-opacity="1" /><path clip-path="url(#clip800)" d="M2174.94 832.904 L2181.91 832.904 L2190.73 856.422 L2199.59 832.904 L2206.56 832.904 L2206.56 867.464 L2202 867.464 L2202 837.117 L2193.09 860.82 L2188.39 860.82 L2179.48 837.117 L2179.48 867.464 L2174.94 867.464 L2174.94 832.904 Z" fill="#000000" fill-rule="nonzero" fill-opacity="1" /><path clip-path="url(#clip800)" d="M2220.52 836.746 L2220.52 849.732 L2226.4 849.732 Q2229.66 849.732 2231.45 848.043 Q2233.23 846.353 2233.23 843.228 Q2233.23 840.126 2231.45 838.436 Q2229.66 836.746 2226.4 836.746 L2220.52 836.746 M2215.84 832.904 L2226.4 832.904 Q2232.21 832.904 2235.17 835.543 Q2238.16 838.158 2238.16 843.228 Q2238.16 848.343 2235.17 850.959 Q2232.21 853.575 2226.4 853.575 L2220.52 853.575 L2220.52 867.464 L2215.84 867.464 L2215.84 832.904 Z" fill="#000000" fill-rule="nonzero" fill-opacity="1" /><path clip-path="url(#clip800)" d="M2244.43 832.904 L2249.11 832.904 L2249.11 863.529 L2265.94 863.529 L2265.94 867.464 L2244.43 867.464 L2244.43 832.904 Z" fill="#000000" fill-rule="nonzero" fill-opacity="1" /><path clip-path="url(#clip800)" d="M2270.84 832.904 L2292.69 832.904 L2292.69 836.839 L2275.52 836.839 L2275.52 847.07 L2291.98 847.07 L2291.98 851.005 L2275.52 851.005 L2275.52 863.529 L2293.11 863.529 L2293.11 867.464 L2270.84 867.464 L2270.84 832.904 Z" fill="#000000" fill-rule="nonzero" fill-opacity="1" /><path clip-path="url(#clip800)" d="M2299.13 832.904 L2304.15 832.904 L2312.74 845.751 L2321.38 832.904 L2326.4 832.904 L2315.29 849.501 L2327.14 867.464 L2322.12 867.464 L2312.39 852.765 L2302.6 867.464 L2297.56 867.464 L2309.89 849.015 L2299.13 832.904 Z" fill="#000000" fill-rule="nonzero" fill-opacity="1" /><polyline clip-path="url(#clip800)" style="stroke:#c271d2; stroke-linecap:round; stroke-linejoin:round; stroke-width:8; stroke-opacity:1; fill:none" points="1923.22,902.024 2076.92,902.024 "/>
<path clip-path="url(#clip800)" d="M2106.82 915.415 L2106.82 929.165 L2102.53 929.165 L2102.53 893.378 L2106.82 893.378 L2106.82 897.313 Q2108.16 894.998 2110.2 893.887 Q2112.26 892.753 2115.1 892.753 Q2119.83 892.753 2122.77 896.503 Q2125.73 900.253 2125.73 906.364 Q2125.73 912.475 2122.77 916.225 Q2119.83 919.975 2115.1 919.975 Q2112.26 919.975 2110.2 918.864 Q2108.16 917.73 2106.82 915.415 M2121.31 906.364 Q2121.31 901.665 2119.36 899.003 Q2117.44 896.318 2114.06 896.318 Q2110.68 896.318 2108.74 899.003 Q2106.82 901.665 2106.82 906.364 Q2106.82 911.063 2108.74 913.748 Q2110.68 916.41 2114.06 916.41 Q2117.44 916.41 2119.36 913.748 Q2121.31 911.063 2121.31 906.364 Z" fill="#000000" fill-rule="nonzero" fill-opacity="1" /><path clip-path="url(#clip800)" d="M2153.69 885.878 L2153.69 890.438 Q2151.03 889.165 2148.67 888.54 Q2146.31 887.915 2144.11 887.915 Q2140.29 887.915 2138.2 889.396 Q2136.14 890.878 2136.14 893.609 Q2136.14 895.901 2137.51 897.082 Q2138.9 898.239 2142.74 898.957 L2145.57 899.535 Q2150.8 900.531 2153.27 903.054 Q2155.77 905.554 2155.77 909.767 Q2155.77 914.79 2152.39 917.382 Q2149.04 919.975 2142.53 919.975 Q2140.08 919.975 2137.3 919.419 Q2134.55 918.864 2131.58 917.776 L2131.58 912.961 Q2134.43 914.558 2137.16 915.369 Q2139.89 916.179 2142.53 916.179 Q2146.54 916.179 2148.71 914.605 Q2150.89 913.031 2150.89 910.114 Q2150.89 907.568 2149.32 906.133 Q2147.77 904.697 2144.2 903.98 L2141.35 903.424 Q2136.12 902.383 2133.78 900.16 Q2131.45 897.938 2131.45 893.98 Q2131.45 889.396 2134.66 886.758 Q2137.9 884.119 2143.58 884.119 Q2146.01 884.119 2148.53 884.559 Q2151.05 884.998 2153.69 885.878 Z" fill="#000000" fill-rule="nonzero" fill-opacity="1" /><path clip-path="url(#clip800)" d="M2163.07 884.744 L2170.03 884.744 L2178.85 908.262 L2187.72 884.744 L2194.69 884.744 L2194.69 919.304 L2190.13 919.304 L2190.13 888.957 L2181.21 912.66 L2176.51 912.66 L2167.6 888.957 L2167.6 919.304 L2163.07 919.304 L2163.07 884.744 Z" fill="#000000" fill-rule="nonzero" fill-opacity="1" /><path clip-path="url(#clip800)" d="M2215.52 889.35 L2209.18 906.549 L2221.89 906.549 L2215.52 889.35 M2212.88 884.744 L2218.18 884.744 L2231.35 919.304 L2226.49 919.304 L2223.34 910.438 L2207.76 910.438 L2204.62 919.304 L2199.69 919.304 L2212.88 884.744 Z" fill="#000000" fill-rule="nonzero" fill-opacity="1" /><path clip-path="url(#clip800)" d="M2241.07 888.586 L2241.07 915.461 L2246.72 915.461 Q2253.88 915.461 2257.19 912.22 Q2260.52 908.98 2260.52 901.989 Q2260.52 895.045 2257.19 891.827 Q2253.88 888.586 2246.72 888.586 L2241.07 888.586 M2236.4 884.744 L2246.01 884.744 Q2256.05 884.744 2260.75 888.934 Q2265.45 893.1 2265.45 901.989 Q2265.45 910.924 2260.73 915.114 Q2256.01 919.304 2246.01 919.304 L2236.4 919.304 L2236.4 884.744 Z" fill="#000000" fill-rule="nonzero" fill-opacity="1" /></svg>
