<?xml version="1.0" encoding="utf-8"?>
<svg xmlns="http://www.w3.org/2000/svg" xmlns:xlink="http://www.w3.org/1999/xlink" width="600" height="400" viewBox="0 0 2400 1600">
<defs>
  <clipPath id="clip790">
    <rect x="0" y="0" width="2400" height="1600"/>
  </clipPath>
</defs>
<path clip-path="url(#clip790)" d="M0 1600 L2400 1600 L2400 0 L0 0  Z" fill="#ffffff" fill-rule="evenodd" fill-opacity="1"/>
<defs>
  <clipPath id="clip791">
    <rect x="480" y="0" width="1681" height="1600"/>
  </clipPath>
</defs>
<path clip-path="url(#clip790)" d="M47.2441 1552.76 L1820.75 1552.76 L1820.75 47.2441 L47.2441 47.2441  Z" fill="#ffffff" fill-rule="evenodd" fill-opacity="1"/>
<defs>
  <clipPath id="clip792">
    <rect x="47" y="47" width="1775" height="1507"/>
  </clipPath>
</defs>
<polyline clip-path="url(#clip790)" style="stroke:#000000; stroke-linecap:round; stroke-linejoin:round; stroke-width:4; stroke-opacity:1; fill:none" points="47.2441,1552.76 1820.75,1552.76 "/>
<polyline clip-path="url(#clip790)" style="stroke:#000000; stroke-linecap:round; stroke-linejoin:round; stroke-width:4; stroke-opacity:1; fill:none" points="47.2441,1552.76 47.2441,47.2441 "/>
<polyline clip-path="url(#clip792)" style="stroke:#009af9; stroke-linecap:round; stroke-linejoin:round; stroke-width:8; stroke-opacity:1; fill:none" points="97.4376,1366.01 110.612,1365.76 123.786,1364.93 136.96,1363.3 150.134,1360.43 163.308,1355.45 176.483,1346.73 189.657,1331.3 202.831,1304.57 216.005,1261.32 229.179,1197.48 242.353,1111.27 255.528,1003.43 268.702,877.582 281.876,740.08 295.05,599.101 308.224,463.349 321.398,340.851 334.572,238.19 347.747,160.226 360.921,110.187 374.095,89.9178 387.269,100.111 400.443,140.421 413.617,209.409 426.792,304.334 439.966,420.9 453.14,553.085 466.314,693.283 479.488,832.898 492.662,963.427 505.836,1077.79 519.011,1171.39 532.185,1242.56 545.359,1292.3 558.533,1323.95 571.707,1342.55 584.881,1353.08 598.056,1359.07 611.23,1362.52 624.404,1364.49 637.578,1365.55 650.752,1365.98 663.926,1365.9 677.101,1365.28 690.275,1363.95 703.449,1361.56 716.623,1357.42 729.797,1350.19 742.971,1337.42 756.145,1315.03 769.32,1277.81 782.494,1221.13 795.668,1142.4 808.842,1041.49 822.016,921.037 835.19,786.564 848.365,645.771 861.539,507.336 874.713,379.622 887.887,269.743 901.061,183.136 914.235,123.548 927.409,93.252 940.584,93.3046 953.758,123.704 966.932,183.39 980.106,270.084 993.28,380.034 1006.45,507.798 1019.63,646.255 1032.8,787.039 1045.98,921.476 1059.15,1041.86 1072.33,1142.71 1085.5,1221.36 1098.67,1277.96 1111.85,1315.13 1125.02,1337.47 1138.2,1350.22 1151.37,1357.43 1164.54,1361.57 1177.72,1363.95 1190.89,1365.28 1204.07,1365.9 1217.24,1365.98 1230.42,1365.55 1243.59,1364.49 1256.76,1362.51 1269.94,1359.06 1283.11,1353.06 1296.29,1342.51 1309.46,1323.89 1322.63,1292.2 1335.81,1242.42 1348.98,1171.2 1362.16,1077.54 1375.33,963.137 1388.5,832.576 1401.68,692.948 1414.85,552.755 1428.03,420.593 1441.2,304.064 1454.38,209.185 1467.55,140.25 1480.72,99.9927 1493.9,89.8529 1507.07,110.173 1520.25,160.258 1533.42,238.263 1546.59,340.958 1559.77,463.48 1572.94,599.246 1586.12,740.229 1599.29,877.723 1612.47,1003.55 1625.64,1111.37 1638.81,1197.56 1651.99,1261.37 1665.16,1304.61 1678.34,1331.31 1691.51,1346.74 1704.68,1355.45 1717.86,1360.43 1731.03,1363.3 1744.21,1364.93 1757.38,1365.75 1770.56,1366.01 "/>
<polyline clip-path="url(#clip792)" style="stroke:#e26f46; stroke-linecap:round; stroke-linejoin:round; stroke-width:8; stroke-opacity:1; fill:none" points="97.4376,89.8599 110.612,94.9751 123.786,110.891 136.96,139.317 150.134,183.064 163.308,245.855 176.483,331.708 189.657,443.425 202.831,579.882 216.005,733.332 229.179,890.158 242.353,1036.08 255.528,1161.36 268.702,1262.3 281.876,1339.81 295.05,1397.21 308.224,1438.54 321.398,1467.54 334.572,1487.28 347.747,1500.04 360.921,1507.35 374.095,1510.14 387.269,1508.75 400.443,1503.01 413.617,1492.2 426.792,1474.99 439.966,1449.36 453.14,1412.5 466.314,1360.87 479.488,1290.47 492.662,1197.56 505.836,1080.22 519.011,940.364 532.185,785.719 545.359,629.476 558.533,486.17 571.707,365.838 584.881,271.592 598.056,201.58 611.23,151.963 624.404,118.818 637.578,98.9968 650.752,90.417 663.926,92.1293 677.101,104.325 690.275,128.338 703.449,166.621 716.623,222.636 729.797,300.413 742.971,403.404 756.145,532.141 769.32,681.244 782.494,838.631 795.668,989.551 808.842,1122.39 822.016,1231.49 835.19,1316.48 848.365,1380.13 861.539,1426.35 874.713,1459.07 887.887,1481.6 901.061,1496.47 914.235,1505.46 927.409,1509.69 940.584,1509.68 953.758,1505.44 966.932,1496.43 980.106,1481.54 993.28,1458.98 1006.45,1426.22 1019.63,1379.94 1032.8,1316.23 1045.98,1231.16 1059.15,1121.97 1072.33,989.064 1085.5,838.101 1098.67,680.719 1111.85,531.67 1125.02,403.017 1138.2,300.116 1151.37,222.42 1164.54,166.471 1177.72,128.24 1190.89,104.269 1204.07,92.106 1217.24,90.423 1230.42,99.0311 1243.59,118.883 1256.76,152.063 1269.94,201.725 1283.11,271.789 1296.29,366.095 1309.46,486.487 1322.63,629.837 1335.81,786.094 1348.98,940.718 1362.16,1080.53 1375.33,1197.81 1388.5,1290.66 1401.68,1361.02 1414.85,1412.61 1428.03,1449.43 1441.2,1475.04 1454.38,1492.24 1467.55,1503.03 1480.72,1508.77 1493.9,1510.15 1507.07,1507.35 1520.25,1500.03 1533.42,1487.27 1546.59,1467.52 1559.77,1438.51 1572.94,1397.16 1586.12,1339.74 1599.29,1262.21 1612.47,1161.25 1625.64,1035.94 1638.81,890.001 1651.99,733.174 1665.16,579.737 1678.34,443.306 1691.51,331.618 1704.68,245.792 1717.86,183.022 1731.03,139.291 1744.21,110.876 1757.38,94.9661 1770.56,89.8529 "/>
<polyline clip-path="url(#clip792)" style="stroke:#3da44d; stroke-linecap:round; stroke-linejoin:round; stroke-width:8; stroke-opacity:1; fill:none" points="97.4376,89.8845 110.612,92.2816 123.786,99.4365 136.96,111.234 150.134,127.462 163.308,147.788 176.483,171.742 189.657,198.748 202.831,228.221 216.005,259.722 229.179,293.015 242.353,327.929 255.528,364.126 268.702,400.954 281.876,437.435 295.05,472.365 308.224,504.475 321.398,532.583 334.572,555.696 347.747,573.05 360.921,584.12 374.095,588.592 387.269,586.344 400.443,577.437 413.617,562.119 426.792,540.843 439.966,514.293 453.14,483.386 466.314,449.252 479.488,413.146 492.662,376.31 505.836,339.814 519.011,304.423 532.185,270.569 545.359,238.456 558.533,208.272 571.707,180.387 584.881,155.353 598.056,133.765 611.23,116.134 624.404,102.837 637.578,94.1244 650.752,90.1409 663.926,90.9475 677.101,96.5321 690.275,106.807 703.449,121.596 716.623,140.607 729.797,163.417 742.971,189.478 756.145,218.191 769.32,249.054 782.494,281.771 795.668,316.173 808.842,352 822.016,388.713 835.19,425.436 848.365,461.023 861.539,494.209 874.713,523.769 887.887,548.639 901.061,567.978 914.235,581.182 927.409,587.87 940.584,587.858 953.758,581.147 966.932,567.921 980.106,548.562 993.28,523.674 1006.45,494.1 1019.63,460.903 1032.8,425.309 1045.98,388.584 1059.15,351.872 1072.33,316.049 1085.5,281.652 1098.67,248.941 1111.85,218.084 1125.02,189.378 1138.2,163.326 1151.37,140.527 1164.54,121.528 1177.72,106.753 1190.89,96.4924 1204.07,90.9221 1217.24,90.1298 1230.42,94.1274 1243.59,102.854 1256.76,116.163 1269.94,133.807 1283.11,155.406 1296.29,180.45 1309.46,208.343 1322.63,238.534 1335.81,270.654 1348.98,304.514 1362.16,339.91 1375.33,376.41 1388.5,413.248 1401.68,449.353 1414.85,483.484 1428.03,514.385 1441.2,540.927 1454.38,562.193 1467.55,577.5 1480.72,586.396 1493.9,588.632 1507.07,584.149 1520.25,573.068 1533.42,555.703 1546.59,532.581 1559.77,504.464 1572.94,472.347 1586.12,437.412 1599.29,400.928 1612.47,364.097 1625.64,327.898 1638.81,292.983 1651.99,259.689 1665.16,228.187 1678.34,198.714 1691.51,171.708 1704.68,147.754 1717.86,127.429 1731.03,111.201 1744.21,99.4043 1757.38,92.2498 1770.56,89.8529 "/>
<polyline clip-path="url(#clip792)" style="stroke:#c271d2; stroke-linecap:round; stroke-linejoin:round; stroke-width:8; stroke-opacity:1; fill:none" points="97.4376,1366.01 110.612,1365.76 123.786,1364.93 136.96,1363.3 150.134,1360.43 163.308,1355.45 176.483,1346.73 189.657,1331.3 202.831,1304.57 216.005,1261.31 229.179,1197.48 242.353,1111.27 255.528,1003.43 268.702,877.581 281.876,740.079 295.05,599.1 308.224,463.348 321.398,340.851 334.572,238.19 347.747,160.226 360.921,110.188 374.095,89.9181 387.269,100.111 400.443,140.422 413.617,209.41 426.792,304.335 439.966,420.901 453.14,553.086 466.314,693.284 479.488,832.899 492.662,963.428 505.836,1077.79 519.011,1171.39 532.185,1242.56 545.359,1292.3 558.533,1323.95 571.707,1342.55 584.881,1353.08 598.056,1359.07 611.23,1362.52 624.404,1364.49 637.578,1365.55 650.752,1365.98 663.926,1365.9 677.101,1365.28 690.275,1363.95 703.449,1361.56 716.623,1357.42 729.797,1350.19 742.971,1337.42 756.145,1315.03 769.32,1277.81 782.494,1221.13 795.668,1142.4 808.842,1041.48 822.016,921.036 835.19,786.562 848.365,645.77 861.539,507.335 874.713,379.621 887.887,269.742 901.061,183.136 914.235,123.548 927.409,93.2521 940.584,93.3049 953.758,123.704 966.932,183.391 980.106,270.085 993.28,380.035 1006.45,507.799 1019.63,646.256 1032.8,787.041 1045.98,921.477 1059.15,1041.87 1072.33,1142.71 1085.5,1221.36 1098.67,1277.96 1111.85,1315.13 1125.02,1337.47 1138.2,1350.22 1151.37,1357.43 1164.54,1361.57 1177.72,1363.95 1190.89,1365.28 1204.07,1365.9 1217.24,1365.98 1230.42,1365.55 1243.59,1364.49 1256.76,1362.51 1269.94,1359.06 1283.11,1353.06 1296.29,1342.51 1309.46,1323.89 1322.63,1292.2 1335.81,1242.42 1348.98,1171.2 1362.16,1077.54 1375.33,963.136 1388.5,832.575 1401.68,692.947 1414.85,552.755 1428.03,420.592 1441.2,304.064 1454.38,209.185 1467.55,140.249 1480.72,99.9925 1493.9,89.8529 1507.07,110.173 1520.25,160.259 1533.42,238.264 1546.59,340.959 1559.77,463.48 1572.94,599.247 1586.12,740.229 1599.29,877.723 1612.47,1003.55 1625.64,1111.37 1638.81,1197.56 1651.99,1261.37 1665.16,1304.61 1678.34,1331.31 1691.51,1346.74 1704.68,1355.45 1717.86,1360.43 1731.03,1363.3 1744.21,1364.93 1757.38,1365.75 1770.56,1366.01 "/>
<path clip-path="url(#clip790)" d="M1897.6 953.864 L2352.76 953.864 L2352.76 694.664 L1897.6 694.664  Z" fill="#ffffff" fill-rule="evenodd" fill-opacity="1"/>
<polyline clip-path="url(#clip790)" style="stroke:#000000; stroke-linecap:round; stroke-linejoin:round; stroke-width:4; stroke-opacity:1; fill:none" points="1897.6,953.864 2352.76,953.864 2352.76,694.664 1897.6,694.664 1897.6,953.864 "/>
<polyline clip-path="url(#clip790)" style="stroke:#009af9; stroke-linecap:round; stroke-linejoin:round; stroke-width:8; stroke-opacity:1; fill:none" points="1923.22,746.504 2076.92,746.504 "/>
<path clip-path="url(#clip790)" d="M2128.09 758.853 L2128.09 749.571 L2120.45 749.571 L2120.45 745.728 L2132.72 745.728 L2132.72 760.566 Q2130.01 762.487 2126.75 763.483 Q2123.48 764.455 2119.78 764.455 Q2111.68 764.455 2107.09 759.733 Q2102.53 754.987 2102.53 746.538 Q2102.53 738.066 2107.09 733.344 Q2111.68 728.599 2119.78 728.599 Q2123.16 728.599 2126.19 729.432 Q2129.25 730.265 2131.82 731.886 L2131.82 736.863 Q2129.22 734.664 2126.31 733.552 Q2123.39 732.441 2120.17 732.441 Q2113.83 732.441 2110.64 735.983 Q2107.46 739.525 2107.46 746.538 Q2107.46 753.529 2110.64 757.071 Q2113.83 760.612 2120.17 760.612 Q2122.65 760.612 2124.59 760.196 Q2126.54 759.756 2128.09 758.853 Z" fill="#000000" fill-rule="nonzero" fill-opacity="1" /><path clip-path="url(#clip790)" d="M2145.94 733.066 L2145.94 759.941 L2151.58 759.941 Q2158.74 759.941 2162.05 756.7 Q2165.38 753.46 2165.38 746.469 Q2165.38 739.525 2162.05 736.307 Q2158.74 733.066 2151.58 733.066 L2145.94 733.066 M2141.26 729.224 L2150.87 729.224 Q2160.91 729.224 2165.61 733.414 Q2170.31 737.58 2170.31 746.469 Q2170.31 755.404 2165.59 759.594 Q2160.87 763.784 2150.87 763.784 L2141.26 763.784 L2141.26 729.224 Z" fill="#000000" fill-rule="nonzero" fill-opacity="1" /><path clip-path="url(#clip790)" d="M2177.76 729.224 L2197.63 729.224 L2197.63 733.159 L2182.44 733.159 L2182.44 743.344 L2196.14 743.344 L2196.14 747.279 L2182.44 747.279 L2182.44 763.784 L2177.76 763.784 L2177.76 729.224 Z" fill="#000000" fill-rule="nonzero" fill-opacity="1" /><path clip-path="url(#clip790)" d="M2205.5 729.224 L2223.85 729.224 L2223.85 733.159 L2209.78 733.159 L2209.78 741.631 Q2210.8 741.284 2211.82 741.122 Q2212.83 740.937 2213.85 740.937 Q2219.64 740.937 2223.02 744.108 Q2226.4 747.279 2226.4 752.696 Q2226.4 758.274 2222.93 761.376 Q2219.45 764.455 2213.14 764.455 Q2210.96 764.455 2208.69 764.085 Q2206.45 763.714 2204.04 762.974 L2204.04 758.274 Q2206.12 759.409 2208.34 759.964 Q2210.57 760.52 2213.04 760.52 Q2217.05 760.52 2219.39 758.413 Q2221.72 756.307 2221.72 752.696 Q2221.72 749.085 2219.39 746.978 Q2217.05 744.872 2213.04 744.872 Q2211.17 744.872 2209.29 745.288 Q2207.44 745.705 2205.5 746.585 L2205.5 729.224 Z" fill="#000000" fill-rule="nonzero" fill-opacity="1" /><polyline clip-path="url(#clip790)" style="stroke:#e26f46; stroke-linecap:round; stroke-linejoin:round; stroke-width:8; stroke-opacity:1; fill:none" points="1923.22,798.344 2076.92,798.344 "/>
<path clip-path="url(#clip790)" d="M2102.53 781.064 L2108.83 781.064 L2124.15 809.976 L2124.15 781.064 L2128.69 781.064 L2128.69 815.624 L2122.39 815.624 L2107.07 786.712 L2107.07 815.624 L2102.53 815.624 L2102.53 781.064 Z" fill="#000000" fill-rule="nonzero" fill-opacity="1" /><path clip-path="url(#clip790)" d="M2152.02 784.235 Q2146.93 784.235 2143.92 788.031 Q2140.94 791.828 2140.94 798.378 Q2140.94 804.906 2143.92 808.702 Q2146.93 812.499 2152.02 812.499 Q2157.12 812.499 2160.08 808.702 Q2163.07 804.906 2163.07 798.378 Q2163.07 791.828 2160.08 788.031 Q2157.12 784.235 2152.02 784.235 M2152.02 780.439 Q2159.29 780.439 2163.64 785.323 Q2168 790.184 2168 798.378 Q2168 806.55 2163.64 811.434 Q2159.29 816.295 2152.02 816.295 Q2144.73 816.295 2140.36 811.434 Q2136.01 806.573 2136.01 798.378 Q2136.01 790.184 2140.36 785.323 Q2144.73 780.439 2152.02 780.439 Z" fill="#000000" fill-rule="nonzero" fill-opacity="1" /><path clip-path="url(#clip790)" d="M2198.88 810.693 L2198.88 801.411 L2191.24 801.411 L2191.24 797.568 L2203.51 797.568 L2203.51 812.406 Q2200.8 814.327 2197.53 815.323 Q2194.27 816.295 2190.57 816.295 Q2182.46 816.295 2177.88 811.573 Q2173.32 806.827 2173.32 798.378 Q2173.32 789.906 2177.88 785.184 Q2182.46 780.439 2190.57 780.439 Q2193.95 780.439 2196.98 781.272 Q2200.03 782.105 2202.6 783.726 L2202.6 788.703 Q2200.01 786.504 2197.09 785.392 Q2194.18 784.281 2190.96 784.281 Q2184.62 784.281 2181.42 787.823 Q2178.25 791.365 2178.25 798.378 Q2178.25 805.369 2181.42 808.911 Q2184.62 812.452 2190.96 812.452 Q2193.44 812.452 2195.38 812.036 Q2197.32 811.596 2198.88 810.693 Z" fill="#000000" fill-rule="nonzero" fill-opacity="1" /><polyline clip-path="url(#clip790)" style="stroke:#3da44d; stroke-linecap:round; stroke-linejoin:round; stroke-width:8; stroke-opacity:1; fill:none" points="1923.22,850.184 2076.92,850.184 "/>
<path clip-path="url(#clip790)" d="M2130.4 835.566 L2130.4 840.496 Q2128.04 838.297 2125.36 837.209 Q2122.7 836.121 2119.69 836.121 Q2113.76 836.121 2110.61 839.756 Q2107.46 843.367 2107.46 850.218 Q2107.46 857.047 2110.61 860.681 Q2113.76 864.292 2119.69 864.292 Q2122.7 864.292 2125.36 863.204 Q2128.04 862.117 2130.4 859.917 L2130.4 864.802 Q2127.95 866.468 2125.2 867.302 Q2122.46 868.135 2119.41 868.135 Q2111.56 868.135 2107.05 863.343 Q2102.53 858.529 2102.53 850.218 Q2102.53 841.885 2107.05 837.094 Q2111.56 832.279 2119.41 832.279 Q2122.51 832.279 2125.24 833.112 Q2128 833.922 2130.4 835.566 Z" fill="#000000" fill-rule="nonzero" fill-opacity="1" /><path clip-path="url(#clip790)" d="M2151.65 836.075 Q2146.56 836.075 2143.55 839.871 Q2140.57 843.668 2140.57 850.218 Q2140.57 856.746 2143.55 860.542 Q2146.56 864.339 2151.65 864.339 Q2156.75 864.339 2159.71 860.542 Q2162.7 856.746 2162.7 850.218 Q2162.7 843.668 2159.71 839.871 Q2156.75 836.075 2151.65 836.075 M2151.65 832.279 Q2158.92 832.279 2163.27 837.163 Q2167.63 842.024 2167.63 850.218 Q2167.63 858.39 2163.27 863.274 Q2158.92 868.135 2151.65 868.135 Q2144.36 868.135 2139.99 863.274 Q2135.64 858.413 2135.64 850.218 Q2135.64 842.024 2139.99 837.163 Q2144.36 832.279 2151.65 832.279 Z" fill="#000000" fill-rule="nonzero" fill-opacity="1" /><path clip-path="url(#clip790)" d="M2174.94 832.904 L2181.91 832.904 L2190.73 856.422 L2199.59 832.904 L2206.56 832.904 L2206.56 867.464 L2202 867.464 L2202 837.117 L2193.09 860.82 L2188.39 860.82 L2179.48 837.117 L2179.48 867.464 L2174.94 867.464 L2174.94 832.904 Z" fill="#000000" fill-rule="nonzero" fill-opacity="1" /><path clip-path="url(#clip790)" d="M2220.52 836.746 L2220.52 849.732 L2226.4 849.732 Q2229.66 849.732 2231.45 848.043 Q2233.23 846.353 2233.23 843.228 Q2233.23 840.126 2231.45 838.436 Q2229.66 836.746 2226.4 836.746 L2220.52 836.746 M2215.84 832.904 L2226.4 832.904 Q2232.21 832.904 2235.17 835.543 Q2238.16 838.158 2238.16 843.228 Q2238.16 848.343 2235.17 850.959 Q2232.21 853.575 2226.4 853.575 L2220.52 853.575 L2220.52 867.464 L2215.84 867.464 L2215.84 832.904 Z" fill="#000000" fill-rule="nonzero" fill-opacity="1" /><path clip-path="url(#clip790)" d="M2244.43 832.904 L2249.11 832.904 L2249.11 863.529 L2265.94 863.529 L2265.94 867.464 L2244.43 867.464 L2244.43 832.904 Z" fill="#000000" fill-rule="nonzero" fill-opacity="1" /><path clip-path="url(#clip790)" d="M2270.84 832.904 L2292.69 832.904 L2292.69 836.839 L2275.52 836.839 L2275.52 847.07 L2291.98 847.07 L2291.98 851.005 L2275.52 851.005 L2275.52 863.529 L2293.11 863.529 L2293.11 867.464 L2270.84 867.464 L2270.84 832.904 Z" fill="#000000" fill-rule="nonzero" fill-opacity="1" /><path clip-path="url(#clip790)" d="M2299.13 832.904 L2304.15 832.904 L2312.74 845.751 L2321.38 832.904 L2326.4 832.904 L2315.29 849.501 L2327.14 867.464 L2322.12 867.464 L2312.39 852.765 L2302.6 867.464 L2297.56 867.464 L2309.89 849.015 L2299.13 832.904 Z" fill="#000000" fill-rule="nonzero" fill-opacity="1" /><polyline clip-path="url(#clip790)" style="stroke:#c271d2; stroke-linecap:round; stroke-linejoin:round; stroke-width:8; stroke-opacity:1; fill:none" points="1923.22,902.024 2076.92,902.024 "/>
<path clip-path="url(#clip790)" d="M2106.82 915.415 L2106.82 929.165 L2102.53 929.165 L2102.53 893.378 L2106.82 893.378 L2106.82 897.313 Q2108.16 894.998 2110.2 893.887 Q2112.26 892.753 2115.1 892.753 Q2119.83 892.753 2122.77 896.503 Q2125.73 900.253 2125.73 906.364 Q2125.73 912.475 2122.77 916.225 Q2119.83 919.975 2115.1 919.975 Q2112.26 919.975 2110.2 918.864 Q2108.16 917.73 2106.82 915.415 M2121.31 906.364 Q2121.31 901.665 2119.36 899.003 Q2117.44 896.318 2114.06 896.318 Q2110.68 896.318 2108.74 899.003 Q2106.82 901.665 2106.82 906.364 Q2106.82 911.063 2108.74 913.748 Q2110.68 916.41 2114.06 916.41 Q2117.44 916.41 2119.36 913.748 Q2121.31 911.063 2121.31 906.364 Z" fill="#000000" fill-rule="nonzero" fill-opacity="1" /><path clip-path="url(#clip790)" d="M2153.69 885.878 L2153.69 890.438 Q2151.03 889.165 2148.67 888.54 Q2146.31 887.915 2144.11 887.915 Q2140.29 887.915 2138.2 889.396 Q2136.14 890.878 2136.14 893.609 Q2136.14 895.901 2137.51 897.082 Q2138.9 898.239 2142.74 898.957 L2145.57 899.535 Q2150.8 900.531 2153.27 903.054 Q2155.77 905.554 2155.77 909.767 Q2155.77 914.79 2152.39 917.382 Q2149.04 919.975 2142.53 919.975 Q2140.08 919.975 2137.3 919.419 Q2134.55 918.864 2131.58 917.776 L2131.58 912.961 Q2134.43 914.558 2137.16 915.369 Q2139.89 916.179 2142.53 916.179 Q2146.54 916.179 2148.71 914.605 Q2150.89 913.031 2150.89 910.114 Q2150.89 907.568 2149.32 906.133 Q2147.77 904.697 2144.2 903.98 L2141.35 903.424 Q2136.12 902.383 2133.78 900.16 Q2131.45 897.938 2131.45 893.98 Q2131.45 889.396 2134.66 886.758 Q2137.9 884.119 2143.58 884.119 Q2146.01 884.119 2148.53 884.559 Q2151.05 884.998 2153.69 885.878 Z" fill="#000000" fill-rule="nonzero" fill-opacity="1" /><path clip-path="url(#clip790)" d="M2163.07 884.744 L2170.03 884.744 L2178.85 908.262 L2187.72 884.744 L2194.69 884.744 L2194.69 919.304 L2190.13 919.304 L2190.13 888.957 L2181.21 912.66 L2176.51 912.66 L2167.6 888.957 L2167.6 919.304 L2163.07 919.304 L2163.07 884.744 Z" fill="#000000" fill-rule="nonzero" fill-opacity="1" /><path clip-path="url(#clip790)" d="M2215.52 889.35 L2209.18 906.549 L2221.89 906.549 L2215.52 889.35 M2212.88 884.744 L2218.18 884.744 L2231.35 919.304 L2226.49 919.304 L2223.34 910.438 L2207.76 910.438 L2204.62 919.304 L2199.69 919.304 L2212.88 884.744 Z" fill="#000000" fill-rule="nonzero" fill-opacity="1" /><path clip-path="url(#clip790)" d="M2241.07 888.586 L2241.07 915.461 L2246.72 915.461 Q2253.88 915.461 2257.19 912.22 Q2260.52 908.98 2260.52 901.989 Q2260.52 895.045 2257.19 891.827 Q2253.88 888.586 2246.72 888.586 L2241.07 888.586 M2236.4 884.744 L2246.01 884.744 Q2256.05 884.744 2260.75 888.934 Q2265.45 893.1 2265.45 901.989 Q2265.45 910.924 2260.73 915.114 Q2256.01 919.304 2246.01 919.304 L2236.4 919.304 L2236.4 884.744 Z" fill="#000000" fill-rule="nonzero" fill-opacity="1" /></svg>
